<?xml version="1.0" encoding="utf-8"?>
<!-- Generator: Adobe Illustrator 27.0.0, SVG Export Plug-In . SVG Version: 6.00 Build 0)  -->
<svg version="1.1" xmlns="http://www.w3.org/2000/svg" xmlns:xlink="http://www.w3.org/1999/xlink" x="0px" y="0px"
	 viewBox="0 0 1700.7874 346.7031" style="enable-background:new 0 0 1700.7874 346.7031;" xml:space="preserve">
<style type="text/css">
	.st0{display:none;}
	.st1{display:inline;}
	.st2{fill:#FFFFFF;}
	.st3{fill:#275888;}
	.st4{fill:#EB7704;}
</style>
<g id="Layer_2" class="st0">
	<rect y="-99.2203" class="st1" width="1700.7874" height="566.9291"/>
</g>
<g id="Layer_1">
	<g transform="matrix(.281 0 0 .281 -41.8 -43.7)">
		<g transform="matrix(21.6 0 0 21.6 -4857 7665)">
			<path class="st2" d="M262.0422-315.208c0.2558-4.5615,2.4859-8.5919,5.8647-11.4398c3.3064-2.7996,7.7472-4.5132,12.6224-4.5132
				c4.851,0,9.2918,1.7112,12.5983,4.5132c3.3789,2.8478,5.5992,6.8784,5.8647,11.4398c0.2558,4.6821-1.6291,9.0505-4.9235,12.2845
				c-3.3788,3.2823-8.1575,5.3579-13.5395,5.3579c-5.382,0-10.1848-2.0611-13.5395-5.3579
				c-3.3064-3.234-5.1889-7.5783-4.9234-12.2603L262.0422-315.208z"/>
		</g>
		<g transform="matrix(11.1 0 0 11.1 -2215 4153)">
			<path class="st3" d="M291.5793-298.0686c0.2558-4.5615,2.4859-8.5919,5.8647-11.4398c3.3064-2.7996,7.7472-4.5132,12.6224-4.5132
				c4.851,0,9.2918,1.7112,12.5983,4.5132c3.3788,2.8479,5.5992,6.8784,5.8647,11.4398c0.2558,4.6821-1.6291,9.0505-4.9235,12.2845
				c-3.3788,3.2823-8.1575,5.3579-13.5395,5.3579c-5.382,0-10.1848-2.0611-13.5395-5.3579
				c-3.3064-3.234-5.1889-7.5783-4.9234-12.2603L291.5793-298.0686z"/>
			<path class="st4" d="M262.6178-288.4147c0.0314,1.7859,0.6009,5.2613,1.4553,7.9644c1.7956,5.744,4.851,11.0536,9.0746,15.7116
				c4.3442,4.8028,9.7021,8.6643,15.8806,11.4157c6.4922,2.872,13.5395,4.3442,20.8523,4.3442
				c7.3128-0.0096,14.3601-1.506,20.8523-4.4166c6.1784-2.7755,11.5363-6.637,15.8805-11.4639
				c4.2477-4.7063,7.2886-10.0158,9.0746-15.7599c0.905-2.8962,1.477-5.8406,1.7063-8.785
				c0.2244-2.8962,0.1303-5.8164-0.2824-8.7367c-0.8061-5.6716-2.7755-11.0054-5.7923-15.8323
				c-2.7514-4.4649-6.3233-8.3506-10.571-11.6329l0.0097-0.0072l-42.7182-32.8231c-0.0386-0.0289-0.07-0.0603-0.1111-0.0869
				c-2.7996-2.1528-7.53-2.1456-10.5951,0.0121c-3.1133,2.1818-3.4754,5.7923-0.6999,8.0609l-0.0121,0.0121l17.8354,14.5049
				l-54.3028,0.0579h-0.0724c-4.489,0.0049-8.8091,2.9444-9.6538,6.6852c-0.8785,3.7892,2.1721,6.9508,6.8542,6.9508l-0.0073,0.0169
				l27.5134-0.0531l-49.2345,37.65c-0.0628,0.0459-0.1303,0.0941-0.1883,0.14c-4.6338,3.5478-6.1302,9.4608-3.2099,13.1775
				c2.9685,3.7891,9.2677,3.8132,13.9498,0.0217l26.7894-21.9625c0,0-0.391,2.9686-0.3596,4.7303L262.6178-288.4147z
				 M331.6427-278.4955c-5.5268,5.6233-13.274,8.8333-21.6246,8.8333c-8.3747,0.0145-16.1219-3.1375-21.6487-8.7609
				c-2.7031-2.7514-4.6821-5.8889-5.913-9.2435c-1.1995-3.3064-1.6653-6.806-1.3564-10.3296
				c0.292-3.4512,1.3202-6.7577,2.9685-9.7262c1.6122-2.9203,3.8374-5.5751,6.5646-7.8196
				c5.382-4.3684,12.2121-6.7577,19.356-6.7577c7.168-0.0096,13.9981,2.3386,19.3801,6.7094
				c2.7272,2.2301,4.9476,4.8752,6.5646,7.7955c1.6484,2.9686,2.6789,6.2508,2.9686,9.7262
				c0.3041,3.5236-0.1617,7.0232-1.3612,10.3296c-1.226,3.3788-3.2099,6.5164-5.913,9.2677L331.6427-278.4955z"/>
		</g>
	</g>
	<g>
		<path class="st2" d="M481.3438,218.0434c0-20.1533-0.6606-37.3335-1.3213-51.54h42.2891l2.3125,21.8057h0.9912
			c6.938-10.2422,21.1445-25.4395,48.8965-25.4395c20.8145,0,37.3335,10.5723,44.2715,27.4209h0.6606
			c5.9473-8.2588,13.2153-14.8667,20.8145-19.4922c8.9204-5.2861,18.8315-7.9287,30.7256-7.9287
			c31.0562,0,54.5132,21.8052,54.5132,70.041v95.1504h-48.8965v-87.8819c0-23.457-7.5991-37.0029-23.7881-37.0029
			c-11.563,0-19.8228,7.9287-23.1265,17.5098c-1.3218,3.6348-1.9824,8.9209-1.9824,12.8857v94.4893h-48.897v-90.5254
			c0-20.4834-7.2681-34.3594-23.1265-34.3594c-12.8853,0-20.4839,9.9111-23.4575,18.1709
			c-1.6519,3.9648-1.9819,8.5898-1.9819,12.5547v94.1592h-48.897V218.0434z"/>
		<path class="st2" d="M765.4683,218.0434c0-20.1533-0.6606-37.3335-1.3213-51.54h43.6104l2.313,22.1357h0.9907
			c6.6079-10.2417,23.127-25.7695,49.8882-25.7695c33.0381,0,57.8174,21.8052,57.8174,69.3799v95.8115h-50.2188v-89.5342
			c0-20.8135-7.2686-35.0205-25.4395-35.0205c-13.876,0-22.1357,9.5811-25.4395,18.832c-1.3218,2.9736-1.9824,7.9297-1.9824,12.5547
			v93.168h-50.2183V218.0434z"/>
		<path class="st2" d="M1010.9424,121.5713c0,13.8765-10.5723,25.1094-27.0918,25.1094c-15.8574,0-26.4297-11.2329-26.0996-25.1094
			c-0.3301-14.5366,10.2422-25.4395,26.4307-25.4395S1010.6123,107.0346,1010.9424,121.5713z M959.0723,328.061V166.5034h50.2188
			V328.061H959.0723z"/>
		<path class="st2" d="M1094.1943,147.6718h-59.7988v-42.2891h171.1387v42.2891h-60.791V328.061h-50.5488V147.6718z"/>
		<path class="st2" d="M1212.8037,219.6958c0-23.7881-0.6611-39.3159-1.3213-53.1924h43.2803l1.6514,29.7344h1.3223
			c8.2588-23.457,28.082-33.3682,43.6104-33.3682c4.625,0,6.9375,0,10.5723,0.6606v47.2446
			c-3.6348-0.6611-7.9297-1.3213-13.5459-1.3213c-18.501,0-31.0557,9.9111-34.3604,25.4395
			c-0.6602,3.3037-0.9902,7.2686-0.9902,11.2324v81.9356h-50.2188V219.6958z"/>
		<path class="st2" d="M1426.5625,328.061l-2.9736-16.1885h-0.9912c-10.5723,12.8848-27.0908,19.8223-46.2539,19.8223
			c-32.708,0-52.2002-23.7871-52.2002-49.5566c0-41.959,37.6641-62.1123,94.8203-61.7822v-2.3125
			c0-8.5898-4.626-20.8145-29.4043-20.8145c-16.5195,0-34.0293,5.6162-44.6016,12.2246l-9.251-32.3779
			c11.2334-6.2773,33.3691-14.2061,62.7725-14.2061c53.8525,0,71.0332,31.7168,71.0332,69.7109v56.1651
			c0,15.5283,0.6602,30.3955,2.3125,39.3154H1426.5625z M1420.6152,251.7426c-26.4307-0.3301-46.9141,5.9463-46.9141,25.4395
			c0,12.8848,8.5898,19.1621,19.8232,19.1621c12.5547,0,22.7959-8.2598,26.0996-18.502c0.6611-2.6426,0.9912-5.6162,0.9912-8.5898
			V251.7426z"/>
		<path class="st2" d="M1547.4824,166.5034l15.8584,26.7607c4.626,8.2598,8.9209,16.5195,13.2158,24.1182h0.6602
			c4.2959-8.5898,8.2598-16.8496,12.5547-24.7783l14.207-26.1006h54.5127l-53.1914,76.9795l53.8525,84.5781h-56.8262
			l-16.1885-29.0742c-4.625-7.9287-8.5898-16.1885-12.5547-24.4482h-0.9912c-3.9648,8.5908-8.2598,16.5195-12.2236,24.4482
			l-15.1982,29.0742h-55.1738l54.8438-82.2656l-53.5225-79.292H1547.4824z"/>
	</g>
	<g>
	</g>
	<g>
	</g>
	<g>
	</g>
	<g>
	</g>
	<g>
	</g>
	<g>
	</g>
</g>
</svg>
