<?xml version="1.0" encoding="utf-8" standalone="no"?>
<!DOCTYPE svg PUBLIC "-//W3C//DTD SVG 1.1//EN"
  "http://www.w3.org/Graphics/SVG/1.1/DTD/svg11.dtd">
<!-- Created with matplotlib (https://matplotlib.org/) -->
<svg height="288pt" version="1.1" viewBox="0 0 432 288" width="432pt" xmlns="http://www.w3.org/2000/svg" xmlns:xlink="http://www.w3.org/1999/xlink">
 <defs>
  <style type="text/css">
*{stroke-linecap:butt;stroke-linejoin:round;}
  </style>
 </defs>
 <g id="figure_1">
  <g id="patch_1">
   <path d="M 0 288 
L 432 288 
L 432 0 
L 0 0 
z
" style="fill:#ffffff;"/>
  </g>
  <g id="axes_1">
   <g id="patch_2">
    <path d="M 54 252 
L 388.8 252 
L 388.8 34.56 
L 54 34.56 
z
" style="fill:#ffffff;"/>
   </g>
   <g id="matplotlib.axis_1">
    <g id="xtick_1">
     <g id="line2d_1">
      <defs>
       <path d="M 0 0 
L 0 3.5 
" id="m8bdd42ea26" style="stroke:#000000;stroke-width:0.8;"/>
      </defs>
      <g>
       <use style="stroke:#000000;stroke-width:0.8;" x="54" xlink:href="#m8bdd42ea26" y="252"/>
      </g>
     </g>
     <g id="text_1">
      <!-- 0 -->
      <defs>
       <path d="M 31.78125 66.40625 
Q 24.171875 66.40625 20.328125 58.90625 
Q 16.5 51.421875 16.5 36.375 
Q 16.5 21.390625 20.328125 13.890625 
Q 24.171875 6.390625 31.78125 6.390625 
Q 39.453125 6.390625 43.28125 13.890625 
Q 47.125 21.390625 47.125 36.375 
Q 47.125 51.421875 43.28125 58.90625 
Q 39.453125 66.40625 31.78125 66.40625 
z
M 31.78125 74.21875 
Q 44.046875 74.21875 50.515625 64.515625 
Q 56.984375 54.828125 56.984375 36.375 
Q 56.984375 17.96875 50.515625 8.265625 
Q 44.046875 -1.421875 31.78125 -1.421875 
Q 19.53125 -1.421875 13.0625 8.265625 
Q 6.59375 17.96875 6.59375 36.375 
Q 6.59375 54.828125 13.0625 64.515625 
Q 19.53125 74.21875 31.78125 74.21875 
z
" id="DejaVuSans-48"/>
      </defs>
      <g transform="translate(50.81875 266.598437)scale(0.1 -0.1)">
       <use xlink:href="#DejaVuSans-48"/>
      </g>
     </g>
    </g>
    <g id="xtick_2">
     <g id="line2d_2">
      <g>
       <use style="stroke:#000000;stroke-width:0.8;" x="106.3125" xlink:href="#m8bdd42ea26" y="252"/>
      </g>
     </g>
     <g id="text_2">
      <!-- 200 -->
      <defs>
       <path d="M 19.1875 8.296875 
L 53.609375 8.296875 
L 53.609375 0 
L 7.328125 0 
L 7.328125 8.296875 
Q 12.9375 14.109375 22.625 23.890625 
Q 32.328125 33.6875 34.8125 36.53125 
Q 39.546875 41.84375 41.421875 45.53125 
Q 43.3125 49.21875 43.3125 52.78125 
Q 43.3125 58.59375 39.234375 62.25 
Q 35.15625 65.921875 28.609375 65.921875 
Q 23.96875 65.921875 18.8125 64.3125 
Q 13.671875 62.703125 7.8125 59.421875 
L 7.8125 69.390625 
Q 13.765625 71.78125 18.9375 73 
Q 24.125 74.21875 28.421875 74.21875 
Q 39.75 74.21875 46.484375 68.546875 
Q 53.21875 62.890625 53.21875 53.421875 
Q 53.21875 48.921875 51.53125 44.890625 
Q 49.859375 40.875 45.40625 35.40625 
Q 44.1875 33.984375 37.640625 27.21875 
Q 31.109375 20.453125 19.1875 8.296875 
z
" id="DejaVuSans-50"/>
      </defs>
      <g transform="translate(96.76875 266.598437)scale(0.1 -0.1)">
       <use xlink:href="#DejaVuSans-50"/>
       <use x="63.623047" xlink:href="#DejaVuSans-48"/>
       <use x="127.246094" xlink:href="#DejaVuSans-48"/>
      </g>
     </g>
    </g>
    <g id="xtick_3">
     <g id="line2d_3">
      <g>
       <use style="stroke:#000000;stroke-width:0.8;" x="158.625" xlink:href="#m8bdd42ea26" y="252"/>
      </g>
     </g>
     <g id="text_3">
      <!-- 400 -->
      <defs>
       <path d="M 37.796875 64.3125 
L 12.890625 25.390625 
L 37.796875 25.390625 
z
M 35.203125 72.90625 
L 47.609375 72.90625 
L 47.609375 25.390625 
L 58.015625 25.390625 
L 58.015625 17.1875 
L 47.609375 17.1875 
L 47.609375 0 
L 37.796875 0 
L 37.796875 17.1875 
L 4.890625 17.1875 
L 4.890625 26.703125 
z
" id="DejaVuSans-52"/>
      </defs>
      <g transform="translate(149.08125 266.598437)scale(0.1 -0.1)">
       <use xlink:href="#DejaVuSans-52"/>
       <use x="63.623047" xlink:href="#DejaVuSans-48"/>
       <use x="127.246094" xlink:href="#DejaVuSans-48"/>
      </g>
     </g>
    </g>
    <g id="xtick_4">
     <g id="line2d_4">
      <g>
       <use style="stroke:#000000;stroke-width:0.8;" x="210.9375" xlink:href="#m8bdd42ea26" y="252"/>
      </g>
     </g>
     <g id="text_4">
      <!-- 600 -->
      <defs>
       <path d="M 33.015625 40.375 
Q 26.375 40.375 22.484375 35.828125 
Q 18.609375 31.296875 18.609375 23.390625 
Q 18.609375 15.53125 22.484375 10.953125 
Q 26.375 6.390625 33.015625 6.390625 
Q 39.65625 6.390625 43.53125 10.953125 
Q 47.40625 15.53125 47.40625 23.390625 
Q 47.40625 31.296875 43.53125 35.828125 
Q 39.65625 40.375 33.015625 40.375 
z
M 52.59375 71.296875 
L 52.59375 62.3125 
Q 48.875 64.0625 45.09375 64.984375 
Q 41.3125 65.921875 37.59375 65.921875 
Q 27.828125 65.921875 22.671875 59.328125 
Q 17.53125 52.734375 16.796875 39.40625 
Q 19.671875 43.65625 24.015625 45.921875 
Q 28.375 48.1875 33.59375 48.1875 
Q 44.578125 48.1875 50.953125 41.515625 
Q 57.328125 34.859375 57.328125 23.390625 
Q 57.328125 12.15625 50.6875 5.359375 
Q 44.046875 -1.421875 33.015625 -1.421875 
Q 20.359375 -1.421875 13.671875 8.265625 
Q 6.984375 17.96875 6.984375 36.375 
Q 6.984375 53.65625 15.1875 63.9375 
Q 23.390625 74.21875 37.203125 74.21875 
Q 40.921875 74.21875 44.703125 73.484375 
Q 48.484375 72.75 52.59375 71.296875 
z
" id="DejaVuSans-54"/>
      </defs>
      <g transform="translate(201.39375 266.598437)scale(0.1 -0.1)">
       <use xlink:href="#DejaVuSans-54"/>
       <use x="63.623047" xlink:href="#DejaVuSans-48"/>
       <use x="127.246094" xlink:href="#DejaVuSans-48"/>
      </g>
     </g>
    </g>
    <g id="xtick_5">
     <g id="line2d_5">
      <g>
       <use style="stroke:#000000;stroke-width:0.8;" x="263.25" xlink:href="#m8bdd42ea26" y="252"/>
      </g>
     </g>
     <g id="text_5">
      <!-- 800 -->
      <defs>
       <path d="M 31.78125 34.625 
Q 24.75 34.625 20.71875 30.859375 
Q 16.703125 27.09375 16.703125 20.515625 
Q 16.703125 13.921875 20.71875 10.15625 
Q 24.75 6.390625 31.78125 6.390625 
Q 38.8125 6.390625 42.859375 10.171875 
Q 46.921875 13.96875 46.921875 20.515625 
Q 46.921875 27.09375 42.890625 30.859375 
Q 38.875 34.625 31.78125 34.625 
z
M 21.921875 38.8125 
Q 15.578125 40.375 12.03125 44.71875 
Q 8.5 49.078125 8.5 55.328125 
Q 8.5 64.0625 14.71875 69.140625 
Q 20.953125 74.21875 31.78125 74.21875 
Q 42.671875 74.21875 48.875 69.140625 
Q 55.078125 64.0625 55.078125 55.328125 
Q 55.078125 49.078125 51.53125 44.71875 
Q 48 40.375 41.703125 38.8125 
Q 48.828125 37.15625 52.796875 32.3125 
Q 56.78125 27.484375 56.78125 20.515625 
Q 56.78125 9.90625 50.3125 4.234375 
Q 43.84375 -1.421875 31.78125 -1.421875 
Q 19.734375 -1.421875 13.25 4.234375 
Q 6.78125 9.90625 6.78125 20.515625 
Q 6.78125 27.484375 10.78125 32.3125 
Q 14.796875 37.15625 21.921875 38.8125 
z
M 18.3125 54.390625 
Q 18.3125 48.734375 21.84375 45.5625 
Q 25.390625 42.390625 31.78125 42.390625 
Q 38.140625 42.390625 41.71875 45.5625 
Q 45.3125 48.734375 45.3125 54.390625 
Q 45.3125 60.0625 41.71875 63.234375 
Q 38.140625 66.40625 31.78125 66.40625 
Q 25.390625 66.40625 21.84375 63.234375 
Q 18.3125 60.0625 18.3125 54.390625 
z
" id="DejaVuSans-56"/>
      </defs>
      <g transform="translate(253.70625 266.598437)scale(0.1 -0.1)">
       <use xlink:href="#DejaVuSans-56"/>
       <use x="63.623047" xlink:href="#DejaVuSans-48"/>
       <use x="127.246094" xlink:href="#DejaVuSans-48"/>
      </g>
     </g>
    </g>
    <g id="xtick_6">
     <g id="line2d_6">
      <g>
       <use style="stroke:#000000;stroke-width:0.8;" x="315.5625" xlink:href="#m8bdd42ea26" y="252"/>
      </g>
     </g>
     <g id="text_6">
      <!-- 1000 -->
      <defs>
       <path d="M 12.40625 8.296875 
L 28.515625 8.296875 
L 28.515625 63.921875 
L 10.984375 60.40625 
L 10.984375 69.390625 
L 28.421875 72.90625 
L 38.28125 72.90625 
L 38.28125 8.296875 
L 54.390625 8.296875 
L 54.390625 0 
L 12.40625 0 
z
" id="DejaVuSans-49"/>
      </defs>
      <g transform="translate(302.8375 266.598437)scale(0.1 -0.1)">
       <use xlink:href="#DejaVuSans-49"/>
       <use x="63.623047" xlink:href="#DejaVuSans-48"/>
       <use x="127.246094" xlink:href="#DejaVuSans-48"/>
       <use x="190.869141" xlink:href="#DejaVuSans-48"/>
      </g>
     </g>
    </g>
    <g id="xtick_7">
     <g id="line2d_7">
      <g>
       <use style="stroke:#000000;stroke-width:0.8;" x="367.875" xlink:href="#m8bdd42ea26" y="252"/>
      </g>
     </g>
     <g id="text_7">
      <!-- 1200 -->
      <g transform="translate(355.15 266.598437)scale(0.1 -0.1)">
       <use xlink:href="#DejaVuSans-49"/>
       <use x="63.623047" xlink:href="#DejaVuSans-50"/>
       <use x="127.246094" xlink:href="#DejaVuSans-48"/>
       <use x="190.869141" xlink:href="#DejaVuSans-48"/>
      </g>
     </g>
    </g>
    <g id="text_8">
     <!-- X axis [px] -->
     <defs>
      <path d="M 6.296875 72.90625 
L 16.890625 72.90625 
L 35.015625 45.796875 
L 53.21875 72.90625 
L 63.8125 72.90625 
L 40.375 37.890625 
L 65.375 0 
L 54.78125 0 
L 34.28125 31 
L 13.625 0 
L 2.984375 0 
L 29 38.921875 
z
" id="DejaVuSans-88"/>
      <path id="DejaVuSans-32"/>
      <path d="M 34.28125 27.484375 
Q 23.390625 27.484375 19.1875 25 
Q 14.984375 22.515625 14.984375 16.5 
Q 14.984375 11.71875 18.140625 8.90625 
Q 21.296875 6.109375 26.703125 6.109375 
Q 34.1875 6.109375 38.703125 11.40625 
Q 43.21875 16.703125 43.21875 25.484375 
L 43.21875 27.484375 
z
M 52.203125 31.203125 
L 52.203125 0 
L 43.21875 0 
L 43.21875 8.296875 
Q 40.140625 3.328125 35.546875 0.953125 
Q 30.953125 -1.421875 24.3125 -1.421875 
Q 15.921875 -1.421875 10.953125 3.296875 
Q 6 8.015625 6 15.921875 
Q 6 25.140625 12.171875 29.828125 
Q 18.359375 34.515625 30.609375 34.515625 
L 43.21875 34.515625 
L 43.21875 35.40625 
Q 43.21875 41.609375 39.140625 45 
Q 35.0625 48.390625 27.6875 48.390625 
Q 23 48.390625 18.546875 47.265625 
Q 14.109375 46.140625 10.015625 43.890625 
L 10.015625 52.203125 
Q 14.9375 54.109375 19.578125 55.046875 
Q 24.21875 56 28.609375 56 
Q 40.484375 56 46.34375 49.84375 
Q 52.203125 43.703125 52.203125 31.203125 
z
" id="DejaVuSans-97"/>
      <path d="M 54.890625 54.6875 
L 35.109375 28.078125 
L 55.90625 0 
L 45.3125 0 
L 29.390625 21.484375 
L 13.484375 0 
L 2.875 0 
L 24.125 28.609375 
L 4.6875 54.6875 
L 15.28125 54.6875 
L 29.78125 35.203125 
L 44.28125 54.6875 
z
" id="DejaVuSans-120"/>
      <path d="M 9.421875 54.6875 
L 18.40625 54.6875 
L 18.40625 0 
L 9.421875 0 
z
M 9.421875 75.984375 
L 18.40625 75.984375 
L 18.40625 64.59375 
L 9.421875 64.59375 
z
" id="DejaVuSans-105"/>
      <path d="M 44.28125 53.078125 
L 44.28125 44.578125 
Q 40.484375 46.53125 36.375 47.5 
Q 32.28125 48.484375 27.875 48.484375 
Q 21.1875 48.484375 17.84375 46.4375 
Q 14.5 44.390625 14.5 40.28125 
Q 14.5 37.15625 16.890625 35.375 
Q 19.28125 33.59375 26.515625 31.984375 
L 29.59375 31.296875 
Q 39.15625 29.25 43.1875 25.515625 
Q 47.21875 21.78125 47.21875 15.09375 
Q 47.21875 7.46875 41.1875 3.015625 
Q 35.15625 -1.421875 24.609375 -1.421875 
Q 20.21875 -1.421875 15.453125 -0.5625 
Q 10.6875 0.296875 5.421875 2 
L 5.421875 11.28125 
Q 10.40625 8.6875 15.234375 7.390625 
Q 20.0625 6.109375 24.8125 6.109375 
Q 31.15625 6.109375 34.5625 8.28125 
Q 37.984375 10.453125 37.984375 14.40625 
Q 37.984375 18.0625 35.515625 20.015625 
Q 33.0625 21.96875 24.703125 23.78125 
L 21.578125 24.515625 
Q 13.234375 26.265625 9.515625 29.90625 
Q 5.8125 33.546875 5.8125 39.890625 
Q 5.8125 47.609375 11.28125 51.796875 
Q 16.75 56 26.8125 56 
Q 31.78125 56 36.171875 55.265625 
Q 40.578125 54.546875 44.28125 53.078125 
z
" id="DejaVuSans-115"/>
      <path d="M 8.59375 75.984375 
L 29.296875 75.984375 
L 29.296875 69 
L 17.578125 69 
L 17.578125 -6.203125 
L 29.296875 -6.203125 
L 29.296875 -13.1875 
L 8.59375 -13.1875 
z
" id="DejaVuSans-91"/>
      <path d="M 18.109375 8.203125 
L 18.109375 -20.796875 
L 9.078125 -20.796875 
L 9.078125 54.6875 
L 18.109375 54.6875 
L 18.109375 46.390625 
Q 20.953125 51.265625 25.265625 53.625 
Q 29.59375 56 35.59375 56 
Q 45.5625 56 51.78125 48.09375 
Q 58.015625 40.1875 58.015625 27.296875 
Q 58.015625 14.40625 51.78125 6.484375 
Q 45.5625 -1.421875 35.59375 -1.421875 
Q 29.59375 -1.421875 25.265625 0.953125 
Q 20.953125 3.328125 18.109375 8.203125 
z
M 48.6875 27.296875 
Q 48.6875 37.203125 44.609375 42.84375 
Q 40.53125 48.484375 33.40625 48.484375 
Q 26.265625 48.484375 22.1875 42.84375 
Q 18.109375 37.203125 18.109375 27.296875 
Q 18.109375 17.390625 22.1875 11.75 
Q 26.265625 6.109375 33.40625 6.109375 
Q 40.53125 6.109375 44.609375 11.75 
Q 48.6875 17.390625 48.6875 27.296875 
z
" id="DejaVuSans-112"/>
      <path d="M 30.421875 75.984375 
L 30.421875 -13.1875 
L 9.71875 -13.1875 
L 9.71875 -6.203125 
L 21.390625 -6.203125 
L 21.390625 69 
L 9.71875 69 
L 9.71875 75.984375 
z
" id="DejaVuSans-93"/>
     </defs>
     <g transform="translate(194.744531 280.276563)scale(0.1 -0.1)">
      <use xlink:href="#DejaVuSans-88"/>
      <use x="68.505859" xlink:href="#DejaVuSans-32"/>
      <use x="100.292969" xlink:href="#DejaVuSans-97"/>
      <use x="161.572266" xlink:href="#DejaVuSans-120"/>
      <use x="220.751953" xlink:href="#DejaVuSans-105"/>
      <use x="248.535156" xlink:href="#DejaVuSans-115"/>
      <use x="300.634766" xlink:href="#DejaVuSans-32"/>
      <use x="332.421875" xlink:href="#DejaVuSans-91"/>
      <use x="371.435547" xlink:href="#DejaVuSans-112"/>
      <use x="434.912109" xlink:href="#DejaVuSans-120"/>
      <use x="494.091797" xlink:href="#DejaVuSans-93"/>
     </g>
    </g>
   </g>
   <g id="matplotlib.axis_2">
    <g id="ytick_1">
     <g id="line2d_8">
      <defs>
       <path d="M 0 0 
L -3.5 0 
" id="m9618829f26" style="stroke:#000000;stroke-width:0.8;"/>
      </defs>
      <g>
       <use style="stroke:#000000;stroke-width:0.8;" x="54" xlink:href="#m9618829f26" y="252"/>
      </g>
     </g>
     <g id="text_9">
      <!-- 0 -->
      <g transform="translate(40.6375 255.799219)scale(0.1 -0.1)">
       <use xlink:href="#DejaVuSans-48"/>
      </g>
     </g>
    </g>
    <g id="ytick_2">
     <g id="line2d_9">
      <g>
       <use style="stroke:#000000;stroke-width:0.8;" x="54" xlink:href="#m9618829f26" y="221.8"/>
      </g>
     </g>
     <g id="text_10">
      <!-- 100 -->
      <g transform="translate(27.9125 225.599219)scale(0.1 -0.1)">
       <use xlink:href="#DejaVuSans-49"/>
       <use x="63.623047" xlink:href="#DejaVuSans-48"/>
       <use x="127.246094" xlink:href="#DejaVuSans-48"/>
      </g>
     </g>
    </g>
    <g id="ytick_3">
     <g id="line2d_10">
      <g>
       <use style="stroke:#000000;stroke-width:0.8;" x="54" xlink:href="#m9618829f26" y="191.6"/>
      </g>
     </g>
     <g id="text_11">
      <!-- 200 -->
      <g transform="translate(27.9125 195.399219)scale(0.1 -0.1)">
       <use xlink:href="#DejaVuSans-50"/>
       <use x="63.623047" xlink:href="#DejaVuSans-48"/>
       <use x="127.246094" xlink:href="#DejaVuSans-48"/>
      </g>
     </g>
    </g>
    <g id="ytick_4">
     <g id="line2d_11">
      <g>
       <use style="stroke:#000000;stroke-width:0.8;" x="54" xlink:href="#m9618829f26" y="161.4"/>
      </g>
     </g>
     <g id="text_12">
      <!-- 300 -->
      <defs>
       <path d="M 40.578125 39.3125 
Q 47.65625 37.796875 51.625 33 
Q 55.609375 28.21875 55.609375 21.1875 
Q 55.609375 10.40625 48.1875 4.484375 
Q 40.765625 -1.421875 27.09375 -1.421875 
Q 22.515625 -1.421875 17.65625 -0.515625 
Q 12.796875 0.390625 7.625 2.203125 
L 7.625 11.71875 
Q 11.71875 9.328125 16.59375 8.109375 
Q 21.484375 6.890625 26.8125 6.890625 
Q 36.078125 6.890625 40.9375 10.546875 
Q 45.796875 14.203125 45.796875 21.1875 
Q 45.796875 27.640625 41.28125 31.265625 
Q 36.765625 34.90625 28.71875 34.90625 
L 20.21875 34.90625 
L 20.21875 43.015625 
L 29.109375 43.015625 
Q 36.375 43.015625 40.234375 45.921875 
Q 44.09375 48.828125 44.09375 54.296875 
Q 44.09375 59.90625 40.109375 62.90625 
Q 36.140625 65.921875 28.71875 65.921875 
Q 24.65625 65.921875 20.015625 65.03125 
Q 15.375 64.15625 9.8125 62.3125 
L 9.8125 71.09375 
Q 15.4375 72.65625 20.34375 73.4375 
Q 25.25 74.21875 29.59375 74.21875 
Q 40.828125 74.21875 47.359375 69.109375 
Q 53.90625 64.015625 53.90625 55.328125 
Q 53.90625 49.265625 50.4375 45.09375 
Q 46.96875 40.921875 40.578125 39.3125 
z
" id="DejaVuSans-51"/>
      </defs>
      <g transform="translate(27.9125 165.199219)scale(0.1 -0.1)">
       <use xlink:href="#DejaVuSans-51"/>
       <use x="63.623047" xlink:href="#DejaVuSans-48"/>
       <use x="127.246094" xlink:href="#DejaVuSans-48"/>
      </g>
     </g>
    </g>
    <g id="ytick_5">
     <g id="line2d_12">
      <g>
       <use style="stroke:#000000;stroke-width:0.8;" x="54" xlink:href="#m9618829f26" y="131.2"/>
      </g>
     </g>
     <g id="text_13">
      <!-- 400 -->
      <g transform="translate(27.9125 134.999219)scale(0.1 -0.1)">
       <use xlink:href="#DejaVuSans-52"/>
       <use x="63.623047" xlink:href="#DejaVuSans-48"/>
       <use x="127.246094" xlink:href="#DejaVuSans-48"/>
      </g>
     </g>
    </g>
    <g id="ytick_6">
     <g id="line2d_13">
      <g>
       <use style="stroke:#000000;stroke-width:0.8;" x="54" xlink:href="#m9618829f26" y="101"/>
      </g>
     </g>
     <g id="text_14">
      <!-- 500 -->
      <defs>
       <path d="M 10.796875 72.90625 
L 49.515625 72.90625 
L 49.515625 64.59375 
L 19.828125 64.59375 
L 19.828125 46.734375 
Q 21.96875 47.46875 24.109375 47.828125 
Q 26.265625 48.1875 28.421875 48.1875 
Q 40.625 48.1875 47.75 41.5 
Q 54.890625 34.8125 54.890625 23.390625 
Q 54.890625 11.625 47.5625 5.09375 
Q 40.234375 -1.421875 26.90625 -1.421875 
Q 22.3125 -1.421875 17.546875 -0.640625 
Q 12.796875 0.140625 7.71875 1.703125 
L 7.71875 11.625 
Q 12.109375 9.234375 16.796875 8.0625 
Q 21.484375 6.890625 26.703125 6.890625 
Q 35.15625 6.890625 40.078125 11.328125 
Q 45.015625 15.765625 45.015625 23.390625 
Q 45.015625 31 40.078125 35.4375 
Q 35.15625 39.890625 26.703125 39.890625 
Q 22.75 39.890625 18.8125 39.015625 
Q 14.890625 38.140625 10.796875 36.28125 
z
" id="DejaVuSans-53"/>
      </defs>
      <g transform="translate(27.9125 104.799219)scale(0.1 -0.1)">
       <use xlink:href="#DejaVuSans-53"/>
       <use x="63.623047" xlink:href="#DejaVuSans-48"/>
       <use x="127.246094" xlink:href="#DejaVuSans-48"/>
      </g>
     </g>
    </g>
    <g id="ytick_7">
     <g id="line2d_14">
      <g>
       <use style="stroke:#000000;stroke-width:0.8;" x="54" xlink:href="#m9618829f26" y="70.8"/>
      </g>
     </g>
     <g id="text_15">
      <!-- 600 -->
      <g transform="translate(27.9125 74.599219)scale(0.1 -0.1)">
       <use xlink:href="#DejaVuSans-54"/>
       <use x="63.623047" xlink:href="#DejaVuSans-48"/>
       <use x="127.246094" xlink:href="#DejaVuSans-48"/>
      </g>
     </g>
    </g>
    <g id="ytick_8">
     <g id="line2d_15">
      <g>
       <use style="stroke:#000000;stroke-width:0.8;" x="54" xlink:href="#m9618829f26" y="40.6"/>
      </g>
     </g>
     <g id="text_16">
      <!-- 700 -->
      <defs>
       <path d="M 8.203125 72.90625 
L 55.078125 72.90625 
L 55.078125 68.703125 
L 28.609375 0 
L 18.3125 0 
L 43.21875 64.59375 
L 8.203125 64.59375 
z
" id="DejaVuSans-55"/>
      </defs>
      <g transform="translate(27.9125 44.399219)scale(0.1 -0.1)">
       <use xlink:href="#DejaVuSans-55"/>
       <use x="63.623047" xlink:href="#DejaVuSans-48"/>
       <use x="127.246094" xlink:href="#DejaVuSans-48"/>
      </g>
     </g>
    </g>
    <g id="text_17">
     <!-- Y axis [px] -->
     <defs>
      <path d="M -0.203125 72.90625 
L 10.40625 72.90625 
L 30.609375 42.921875 
L 50.6875 72.90625 
L 61.28125 72.90625 
L 35.5 34.71875 
L 35.5 0 
L 25.59375 0 
L 25.59375 34.71875 
z
" id="DejaVuSans-89"/>
     </defs>
     <g transform="translate(21.832812 169.564375)rotate(-90)scale(0.1 -0.1)">
      <use xlink:href="#DejaVuSans-89"/>
      <use x="61.083984" xlink:href="#DejaVuSans-32"/>
      <use x="92.871094" xlink:href="#DejaVuSans-97"/>
      <use x="154.150391" xlink:href="#DejaVuSans-120"/>
      <use x="213.330078" xlink:href="#DejaVuSans-105"/>
      <use x="241.113281" xlink:href="#DejaVuSans-115"/>
      <use x="293.212891" xlink:href="#DejaVuSans-32"/>
      <use x="325" xlink:href="#DejaVuSans-91"/>
      <use x="364.013672" xlink:href="#DejaVuSans-112"/>
      <use x="427.490234" xlink:href="#DejaVuSans-120"/>
      <use x="486.669922" xlink:href="#DejaVuSans-93"/>
     </g>
    </g>
   </g>
   <g id="line2d_16">
    <path clip-path="url(#pef245acb14)" d="M 337.53375 160.192 
L 337.53375 159.89 
L 337.53375 159.588 
L 337.53375 159.286 
L 337.53375 159.89 
L 337.53375 159.89 
L 337.53375 159.89 
L 337.53375 159.89 
L 337.53375 159.89 
L 337.272188 159.89 
L 337.272188 159.89 
L 337.272188 159.89 
L 337.272188 159.89 
L 337.272188 159.588 
L 337.272188 159.286 
L 337.272188 158.984 
L 337.272188 158.984 
L 337.272188 158.682 
L 337.272188 158.38 
L 337.272188 158.078 
L 337.272188 157.776 
L 337.272188 157.474 
L 337.272188 157.474 
L 337.272188 157.172 
L 337.010625 157.172 
L 337.010625 157.172 
L 337.010625 156.87 
L 336.749063 156.87 
L 336.749063 156.87 
L 336.4875 157.172 
L 336.4875 157.172 
L 336.225938 157.172 
L 336.225938 157.172 
L 335.964375 157.172 
L 335.964375 157.172 
L 335.964375 157.172 
L 335.964375 157.172 
L 335.964375 157.172 
L 335.964375 157.172 
L 335.964375 157.172 
L 335.964375 157.172 
L 336.225938 157.172 
L 336.225938 157.172 
L 336.4875 157.172 
L 336.749063 156.87 
L 337.010625 156.87 
L 337.010625 156.568 
L 337.272188 156.568 
L 337.272188 156.266 
L 337.53375 156.266 
L 337.53375 155.964 
L 337.795313 155.964 
L 337.795313 155.964 
L 338.056875 155.964 
L 338.056875 155.964 
L 338.056875 155.964 
L 338.056875 155.964 
L 338.056875 155.964 
L 338.318438 155.964 
L 338.318438 155.964 
L 338.318438 156.266 
L 338.318438 156.266 
L 338.318438 156.266 
L 338.318438 156.266 
L 338.58 156.266 
L 338.58 156.266 
L 338.58 156.568 
L 338.58 156.568 
L 338.58 156.568 
L 338.58 156.87 
L 338.58 157.172 
L 338.58 157.172 
L 338.58 157.474 
L 338.58 157.776 
L 338.58 158.078 
L 338.58 158.078 
L 338.58 158.38 
L 338.58 158.38 
L 338.58 158.38 
L 338.318438 158.38 
L 338.318438 158.38 
L 338.318438 158.38 
L 338.318438 158.38 
L 338.056875 158.38 
L 338.056875 158.38 
L 338.056875 158.38 
L 337.795313 158.38 
L 337.795313 158.38 
L 338.056875 158.38 
L 338.318438 158.078 
L 338.318438 158.078 
L 338.318438 158.078 
L 338.318438 158.078 
L 338.318438 158.078 
L 338.318438 158.078 
L 338.318438 158.078 
L 338.318438 158.078 
L 338.318438 158.078 
L 338.318438 158.078 
L 338.58 158.078 
" style="fill:none;stroke:#1f77b4;stroke-linecap:square;stroke-width:1.5;"/>
   </g>
   <g id="line2d_17">
    <path clip-path="url(#pef245acb14)" d="M 95.065313 165.93 
L 95.326875 166.232 
L 95.588437 166.232 
L 95.85 166.534 
L 96.634688 167.138 
L 97.157813 167.44 
L 97.680937 167.44 
L 98.204063 167.742 
L 98.98875 168.044 
L 99.511875 168.346 
L 100.035 168.346 
L 100.558125 168.648 
L 100.819688 168.648 
L 101.08125 168.648 
L 101.342813 168.648 
L 101.604375 168.346 
L 101.342813 168.346 
L 101.342813 168.044 
L 101.342813 167.742 
L 101.08125 167.44 
L 100.819688 167.138 
L 100.558125 166.836 
L 100.296563 166.534 
L 99.773438 166.232 
L 99.511875 165.93 
L 98.98875 165.628 
L 98.727188 165.326 
L 98.204063 165.326 
L 97.9425 165.024 
L 97.419375 164.722 
L 96.89625 164.722 
L 96.634688 164.42 
L 96.373125 164.42 
L 95.85 164.42 
L 95.588437 164.722 
L 95.326875 164.722 
L 95.065313 165.024 
L 94.542188 165.326 
L 94.280625 165.628 
L 94.019063 165.93 
L 93.7575 166.232 
L 93.495937 166.232 
L 92.972813 166.534 
L 92.71125 166.836 
L 92.449688 166.836 
L 92.188125 167.138 
L 91.926563 167.44 
L 91.665 167.44 
L 91.665 167.742 
L 91.403437 168.044 
L 91.141875 168.346 
L 91.141875 168.648 
L 90.880313 169.252 
L 90.61875 169.554 
L 90.61875 170.158 
L 90.357188 170.46 
L 90.095625 171.064 
L 89.834063 171.668 
L 89.834063 171.97 
L 89.5725 172.574 
L 89.5725 172.876 
L 89.5725 173.178 
L 89.5725 173.48 
L 89.5725 173.782 
L 89.5725 174.084 
L 89.834063 174.084 
L 89.834063 174.084 
L 90.095625 174.084 
L 90.095625 174.084 
L 90.357188 173.782 
L 90.357188 173.178 
L 90.61875 172.876 
L 90.61875 172.272 
L 90.61875 171.668 
L 90.880313 171.064 
L 90.880313 170.46 
L 90.880313 169.856 
L 90.880313 169.252 
L 90.880313 168.648 
L 90.880313 168.044 
L 91.141875 167.44 
L 91.141875 166.836 
L 91.141875 165.93 
L 91.141875 165.628 
L 91.141875 165.024 
L 91.141875 164.42 
L 91.403437 163.514 
L 91.403437 162.91 
L 91.403437 162.306 
L 91.403437 162.004 
L 91.403437 161.702 
L 91.403437 161.4 
L 91.403437 161.098 
L 91.403437 160.796 
L 91.403437 160.494 
L 91.403437 160.192 
L 91.403437 159.89 
L 91.665 159.588 
L 91.926563 159.286 
L 91.926563 158.984 
" style="fill:none;stroke:#ff7f0e;stroke-linecap:square;stroke-width:1.5;"/>
   </g>
   <g id="line2d_18">
    <path clip-path="url(#pef245acb14)" d="M 174.31875 212.74 
L 174.057187 212.74 
L 173.795625 212.74 
L 173.534063 212.438 
L 173.010938 212.136 
L 172.487813 211.532 
L 172.22625 211.23 
L 171.703125 210.928 
L 171.18 210.626 
L 170.656875 210.324 
L 169.872187 210.022 
L 169.349063 209.72 
L 168.564375 209.418 
L 167.779688 209.418 
L 166.995 209.418 
L 166.210313 209.418 
L 165.164062 209.418 
L 164.379375 209.418 
L 163.594688 209.418 
L 162.548438 209.418 
L 161.76375 209.418 
L 160.979062 209.418 
L 159.932813 209.418 
L 159.148125 209.116 
L 158.363438 208.814 
L 157.317188 208.512 
L 156.5325 207.908 
L 155.48625 207.606 
L 154.701563 207.002 
L 153.916875 206.7 
L 152.870625 206.398 
L 152.085938 205.794 
L 151.562813 205.492 
L 151.039688 205.19 
L 150.516563 204.888 
L 150.255 204.586 
L 150.255 204.284 
L 150.516563 203.982 
L 150.778125 203.68 
L 151.039688 203.68 
L 151.562813 203.378 
L 152.085938 203.378 
L 152.870625 203.378 
L 153.655313 203.378 
L 154.44 203.076 
L 155.224688 203.076 
L 156.009375 203.076 
L 156.794062 203.378 
L 157.57875 203.378 
L 158.625 203.378 
L 159.409688 203.68 
L 160.455938 203.68 
L 161.502188 203.68 
L 162.548438 203.982 
L 163.594688 203.982 
L 164.640938 204.284 
L 165.687187 204.586 
L 166.733438 204.888 
L 168.04125 205.19 
L 169.0875 205.794 
L 170.395313 206.096 
L 171.703125 206.7 
L 173.010938 207.606 
L 174.057187 208.21 
L 175.365 209.116 
L 176.672813 210.022 
L 177.719063 210.928 
L 179.026875 211.834 
L 180.073125 213.042 
L 180.857813 213.948 
L 181.6425 214.854 
L 182.165625 215.76 
L 182.68875 216.364 
L 182.950313 216.968 
L 183.211875 217.572 
L 183.211875 217.874 
L 183.211875 218.176 
L 183.211875 218.176 
L 182.950313 217.874 
L 182.68875 217.572 
L 182.427188 217.27 
L 182.165625 216.666 
L 181.904063 216.062 
L 181.380938 215.156 
L 181.119375 214.25 
L 180.857813 213.344 
L 180.334688 212.438 
L 180.073125 211.23 
L 179.811563 210.324 
L 179.811563 209.418 
L 179.811563 208.512 
L 180.073125 207.606 
L 180.59625 206.7 
L 181.119375 205.794 
L 181.904063 204.888 
L 182.68875 204.284 
L 183.735 203.68 
L 184.78125 203.076 
L 186.089063 202.472 
L 187.396875 201.868 
" style="fill:none;stroke:#2ca02c;stroke-linecap:square;stroke-width:1.5;"/>
   </g>
   <g id="line2d_19">
    <path clip-path="url(#pef245acb14)" d="M 369.444375 108.852 
L 369.444375 108.852 
L 369.444375 108.852 
L 369.444375 108.852 
L 369.182813 108.248 
L 368.92125 107.946 
L 368.92125 107.644 
L 368.659688 107.342 
L 368.659688 106.738 
L 368.398125 106.134 
L 368.136563 105.53 
L 367.875 105.228 
L 367.613438 104.624 
L 367.613438 104.02 
L 367.351875 103.718 
L 367.090313 103.114 
L 366.82875 102.812 
L 366.82875 102.51 
L 366.567188 102.208 
L 366.305625 101.906 
L 366.305625 101.906 
L 366.044063 101.604 
L 365.7825 101.604 
L 365.7825 101.604 
L 365.7825 101.604 
L 365.7825 101.604 
L 365.7825 101.604 
L 365.7825 101.604 
L 365.520938 101.906 
L 365.520938 101.906 
L 365.520938 101.906 
L 365.520938 101.906 
L 365.520938 101.906 
L 365.520938 101.906 
L 365.259375 101.906 
L 365.259375 101.906 
L 365.259375 101.906 
L 364.997813 102.208 
L 364.997813 102.208 
L 364.997813 102.208 
L 364.997813 102.208 
L 364.997813 102.208 
L 364.997813 102.51 
L 364.997813 102.51 
L 364.997813 102.51 
L 364.997813 102.51 
L 365.259375 102.51 
L 365.259375 102.51 
L 365.520938 102.51 
L 365.7825 102.51 
L 365.7825 102.51 
L 366.044063 102.51 
L 366.044063 102.51 
L 366.305625 102.51 
L 366.305625 102.51 
L 366.305625 102.51 
L 366.567188 102.51 
L 366.567188 102.51 
L 366.567188 102.51 
L 366.305625 102.51 
L 366.305625 102.51 
L 366.305625 102.51 
L 366.305625 102.51 
L 366.305625 102.51 
L 366.305625 102.51 
L 366.305625 102.51 
L 366.044063 102.51 
L 366.044063 102.51 
L 366.044063 102.812 
L 366.044063 102.812 
L 366.044063 103.114 
L 366.044063 103.416 
L 366.044063 103.416 
L 366.044063 103.718 
L 366.044063 104.02 
L 366.044063 104.02 
L 366.044063 104.322 
L 366.044063 104.624 
L 366.044063 104.624 
L 366.044063 104.624 
L 366.044063 104.926 
L 366.044063 104.926 
L 366.044063 104.926 
L 365.7825 105.228 
L 365.7825 105.53 
L 365.7825 105.53 
L 366.044063 105.53 
L 365.7825 105.832 
L 365.520938 105.832 
L 365.259375 105.832 
L 364.997813 105.832 
L 364.73625 105.832 
L 364.73625 105.832 
L 364.73625 105.832 
L 364.73625 105.832 
L 364.73625 105.832 
L 364.73625 105.832 
L 364.73625 105.832 
L 364.474688 105.832 
L 364.213125 105.832 
" style="fill:none;stroke:#d62728;stroke-linecap:square;stroke-width:1.5;"/>
   </g>
   <g id="line2d_20">
    <path clip-path="url(#pef245acb14)" d="M 183.211875 182.842 
L 183.211875 182.54 
L 183.473438 182.238 
L 183.996563 181.936 
L 184.519688 181.634 
L 185.042813 181.332 
L 185.565938 181.03 
L 186.089063 180.728 
L 186.87375 180.124 
L 187.658438 179.822 
L 188.181563 179.218 
L 188.96625 178.916 
L 189.750938 178.312 
L 190.535625 178.01 
L 191.320313 177.406 
L 192.105 177.104 
L 192.889688 176.802 
L 193.412813 176.198 
L 194.1975 176.198 
L 194.720625 175.896 
L 195.24375 175.594 
L 195.766875 175.594 
L 196.29 175.292 
L 196.813125 175.292 
L 197.074688 175.292 
L 197.597813 175.292 
L 197.859375 175.292 
L 198.120938 175.594 
L 198.644063 175.896 
L 198.905625 176.198 
L 199.167188 176.802 
L 199.42875 177.406 
L 199.690313 178.01 
L 199.951875 178.614 
L 200.213438 179.218 
L 200.475 180.124 
L 200.736563 180.728 
L 200.736563 181.03 
L 200.736563 181.634 
L 200.736563 181.936 
L 200.736563 182.238 
L 200.736563 182.54 
L 200.475 182.842 
L 200.475 183.144 
L 200.475 183.446 
L 200.475 183.748 
L 200.475 184.05 
L 200.475 184.05 
L 200.475 184.352 
L 200.213438 184.352 
L 200.213438 184.352 
L 200.213438 184.352 
L 200.213438 184.352 
L 200.213438 184.05 
L 200.213438 184.05 
L 200.213438 183.748 
L 200.213438 183.446 
L 200.213438 183.144 
L 200.475 182.842 
L 200.475 182.238 
L 200.736563 181.936 
L 200.998125 181.634 
L 201.259688 181.332 
L 201.52125 181.03 
L 201.782813 180.728 
L 202.305938 180.426 
L 202.5675 180.426 
L 202.829063 180.426 
L 203.090625 180.426 
L 203.61375 180.426 
L 203.875313 180.426 
L 203.875313 180.728 
L 204.398438 180.728 
L 204.66 181.03 
L 204.921563 181.332 
L 205.183125 181.634 
L 205.444688 181.936 
L 205.70625 182.238 
L 206.229375 182.54 
L 206.490938 182.842 
L 206.7525 183.144 
L 207.275625 183.446 
L 207.79875 183.748 
L 208.060313 184.05 
L 208.583438 184.654 
L 209.106563 184.956 
L 209.629688 185.258 
L 210.414375 185.258 
L 210.9375 185.56 
L 211.460625 185.862 
L 211.98375 186.164 
L 212.506875 186.466 
L 213.03 186.768 
L 213.291563 187.07 
L 213.553125 187.372 
L 213.814688 187.674 
L 214.07625 187.976 
L 214.337813 188.58 
L 214.599375 189.184 
L 214.860938 189.788 
" style="fill:none;stroke:#9467bd;stroke-linecap:square;stroke-width:1.5;"/>
   </g>
   <g id="line2d_21">
    <path clip-path="url(#pef245acb14)" d="M 247.294688 168.346 
L 247.033125 168.044 
L 246.771563 167.742 
L 246.771563 167.44 
L 245.986875 167.138 
L 245.725313 166.836 
L 245.202188 166.534 
L 244.679063 165.93 
L 243.894375 165.326 
L 243.109688 164.722 
L 242.063438 164.118 
L 241.27875 163.514 
L 240.494063 162.91 
L 239.447813 162.004 
L 238.663125 161.4 
L 237.878438 160.796 
L 237.355313 160.192 
L 236.570625 159.588 
L 236.0475 158.682 
L 235.524375 158.078 
L 235.262813 157.776 
L 234.739688 157.172 
L 233.955 156.568 
L 233.431875 155.964 
L 232.90875 155.662 
L 232.124063 155.36 
L 231.339375 154.756 
L 230.293125 154.454 
L 229.508438 154.152 
L 228.462188 153.85 
L 227.415938 153.548 
L 226.63125 153.246 
L 225.323438 152.944 
L 224.277188 152.944 
L 223.230938 152.642 
L 222.44625 152.34 
L 221.4 152.038 
L 220.35375 151.434 
L 219.3075 151.132 
L 218.522813 150.83 
L 217.476563 150.528 
L 216.691875 150.528 
L 215.907188 150.226 
L 215.1225 149.924 
L 214.337813 149.924 
L 213.814688 149.924 
L 213.03 149.924 
L 212.506875 150.226 
L 211.98375 150.226 
L 211.460625 150.528 
L 210.9375 150.83 
L 210.414375 151.132 
L 209.89125 151.434 
L 209.629688 152.038 
L 209.106563 152.34 
L 208.583438 152.642 
L 208.321875 152.944 
L 207.79875 153.246 
L 207.537188 153.548 
L 207.275625 153.85 
L 207.014063 154.152 
L 206.490938 154.454 
L 206.229375 154.756 
L 205.967813 155.058 
L 205.70625 155.662 
L 205.444688 155.964 
L 205.183125 155.964 
L 204.921563 156.266 
L 204.921563 156.568 
L 204.66 156.87 
L 204.921563 156.87 
L 204.921563 157.172 
L 205.183125 157.172 
L 205.444688 157.172 
L 205.70625 157.172 
L 206.229375 157.172 
L 206.490938 156.87 
L 207.014063 156.87 
L 207.275625 156.568 
L 207.537188 156.266 
L 207.79875 155.964 
L 208.060313 155.662 
L 208.321875 155.662 
L 208.583438 155.36 
L 209.106563 155.36 
L 209.106563 155.058 
L 209.629688 154.756 
L 209.89125 154.756 
L 210.152813 154.756 
L 210.152813 154.756 
L 210.152813 154.756 
L 210.152813 154.756 
L 210.152813 154.756 
L 210.152813 154.756 
L 210.152813 154.756 
L 210.152813 154.756 
L 210.152813 154.756 
L 210.152813 154.756 
L 210.152813 154.756 
L 209.89125 154.454 
" style="fill:none;stroke:#8c564b;stroke-linecap:square;stroke-width:1.5;"/>
   </g>
   <g id="line2d_22">
    <path clip-path="url(#pef245acb14)" d="M 296.206875 139.958 
L 295.945312 139.958 
L 295.945312 139.958 
L 295.68375 139.958 
L 295.422188 139.958 
L 295.160625 139.958 
L 295.160625 139.958 
L 294.899063 139.958 
L 294.6375 139.958 
L 294.375938 139.958 
L 294.114375 139.958 
L 293.59125 139.958 
L 293.068125 139.958 
L 292.545 139.958 
L 292.021875 139.958 
L 291.49875 139.958 
L 290.975625 139.958 
L 290.190938 139.958 
L 289.667813 139.656 
L 288.883125 139.656 
L 288.36 139.354 
L 287.836875 139.052 
L 287.31375 138.75 
L 286.790625 138.146 
L 286.529063 137.844 
L 286.2675 137.24 
L 286.005938 136.636 
L 286.005938 136.334 
L 286.005938 135.73 
L 286.2675 135.126 
L 286.529063 134.522 
L 286.790625 134.22 
L 287.052188 133.616 
L 287.575312 133.314 
L 288.098438 133.012 
L 288.621563 132.71 
L 289.144688 132.408 
L 289.667813 132.106 
L 290.4525 132.106 
L 290.975625 131.804 
L 291.760313 131.804 
L 292.545 131.804 
L 293.329688 132.106 
L 294.114375 132.106 
L 294.899063 132.106 
L 295.68375 132.408 
L 296.73 132.408 
L 297.514688 132.71 
L 298.560938 132.71 
L 299.607188 132.71 
L 300.391875 132.71 
L 301.438125 132.71 
L 302.222813 132.71 
L 303.0075 133.012 
L 303.792188 133.012 
L 304.576875 133.012 
L 304.838438 133.012 
L 305.361562 133.012 
L 305.884688 133.012 
L 306.14625 133.012 
L 306.407813 133.012 
L 306.407813 133.012 
L 306.669375 133.012 
L 306.669375 133.012 
L 306.669375 133.012 
L 306.669375 133.012 
L 306.930938 133.012 
L 306.930938 133.012 
L 306.930938 133.012 
L 306.930938 133.012 
L 306.930938 133.012 
L 307.1925 133.012 
L 307.1925 133.012 
L 307.454063 133.012 
L 307.977188 133.314 
L 308.23875 133.314 
L 308.761875 133.314 
L 309.285 133.314 
L 309.808125 133.616 
L 310.33125 133.616 
L 310.854375 133.616 
L 311.3775 133.918 
L 311.900625 133.918 
L 312.42375 134.22 
L 312.946875 134.22 
L 313.731563 134.522 
L 314.51625 134.522 
L 315.039375 134.824 
L 315.824063 135.126 
L 316.347188 135.428 
L 316.870313 135.428 
L 317.393438 135.428 
L 317.916563 135.428 
L 318.178125 135.428 
L 318.439688 135.126 
L 318.70125 134.824 
L 319.224375 134.522 
L 319.7475 134.22 
L 320.009063 133.616 
L 320.270625 133.314 
" style="fill:none;stroke:#e377c2;stroke-linecap:square;stroke-width:1.5;"/>
   </g>
   <g id="line2d_23">
    <path clip-path="url(#pef245acb14)" d="M 303.269063 158.682 
L 303.530625 158.682 
L 303.530625 158.682 
L 303.530625 158.682 
L 303.792188 159.286 
L 304.05375 159.588 
L 304.05375 159.89 
L 304.05375 160.192 
L 304.315313 160.494 
L 304.576875 161.098 
L 304.576875 161.4 
L 304.838438 161.702 
L 304.838438 162.306 
L 305.1 162.608 
L 305.361562 163.212 
L 305.361562 163.514 
L 305.884688 164.118 
L 305.884688 164.42 
L 306.14625 164.722 
L 306.407813 165.024 
L 306.669375 165.326 
L 306.669375 165.628 
L 306.930938 165.93 
L 306.930938 166.232 
L 306.930938 166.232 
L 307.1925 166.534 
L 307.1925 166.534 
L 307.454063 166.534 
L 307.454063 166.534 
L 307.454063 166.534 
L 307.715625 166.836 
L 307.715625 166.836 
L 307.715625 166.836 
L 307.977188 166.836 
L 307.977188 166.836 
L 307.977188 166.836 
L 307.977188 167.138 
L 307.977188 167.138 
L 308.23875 167.138 
L 308.23875 167.138 
L 308.500313 167.138 
L 308.500313 167.138 
L 308.500313 167.138 
L 308.761875 167.138 
L 308.761875 167.138 
L 309.023438 167.138 
L 309.023438 167.138 
L 309.023438 167.138 
L 309.023438 167.138 
L 309.023438 167.138 
L 309.023438 167.138 
L 309.285 167.138 
L 309.023438 167.138 
L 309.023438 167.138 
L 309.023438 167.138 
L 308.761875 167.138 
L 308.761875 167.138 
L 308.500313 167.138 
L 308.500313 167.138 
L 308.23875 167.138 
L 307.977188 167.138 
L 307.977188 167.138 
L 307.715625 167.138 
L 307.715625 167.138 
L 307.454063 167.138 
L 307.454063 167.138 
L 307.454063 167.138 
L 307.1925 167.138 
L 307.1925 166.836 
L 307.1925 166.836 
L 307.1925 166.836 
L 307.1925 166.836 
L 306.930938 166.534 
L 306.930938 166.534 
L 307.1925 166.232 
L 307.1925 166.232 
L 307.1925 165.93 
L 307.454063 165.628 
L 307.454063 165.326 
L 307.454063 165.326 
L 307.454063 165.024 
L 307.715625 165.024 
L 307.715625 164.722 
L 307.454063 164.722 
L 307.454063 165.024 
L 307.1925 165.024 
L 307.1925 165.024 
L 306.930938 165.326 
L 306.669375 165.628 
L 306.407813 165.93 
L 305.884688 166.232 
L 305.361562 166.534 
L 305.1 166.836 
L 304.838438 167.138 
L 304.576875 167.44 
L 304.315313 167.742 
L 304.05375 168.044 
L 303.530625 168.346 
L 303.269063 168.648 
L 303.0075 168.95 
" style="fill:none;stroke:#7f7f7f;stroke-linecap:square;stroke-width:1.5;"/>
   </g>
   <g id="line2d_24">
    <path clip-path="url(#pef245acb14)" d="M 129.33 222.102 
L 129.591563 222.102 
L 129.591563 222.102 
L 129.853125 222.102 
L 130.114688 222.102 
L 130.114688 222.102 
L 130.37625 222.102 
L 130.637812 222.102 
L 130.899375 222.102 
L 130.899375 222.102 
L 131.160937 222.102 
L 131.4225 222.102 
L 131.4225 222.102 
L 131.684063 222.102 
L 131.945625 222.102 
L 132.207188 222.102 
L 132.46875 222.102 
L 132.730313 222.102 
L 132.730313 222.102 
L 132.991875 222.404 
L 133.515 222.404 
L 133.515 222.404 
L 134.038125 222.404 
L 134.299688 222.706 
L 134.56125 222.706 
L 134.822812 223.008 
L 135.084375 223.008 
L 135.084375 223.008 
L 135.345937 223.31 
L 135.869063 223.31 
L 136.130625 223.31 
L 136.392188 223.31 
L 136.65375 223.31 
L 136.915313 223.31 
L 137.438438 223.31 
L 137.7 223.612 
L 138.223125 223.612 
L 138.484688 223.612 
L 139.007812 223.612 
L 139.530937 223.612 
L 140.054063 223.612 
L 140.577188 223.612 
L 141.100313 223.612 
L 141.623438 223.612 
L 141.885 223.612 
L 142.408125 223.612 
L 143.192813 223.612 
L 143.454375 223.612 
L 143.9775 223.612 
L 144.500625 223.612 
L 144.762188 223.612 
L 145.285313 223.612 
L 145.546875 223.612 
L 145.808438 223.31 
L 146.07 223.31 
L 146.331563 223.31 
L 146.593125 223.31 
L 146.854688 223.008 
L 147.11625 223.008 
L 147.377813 223.008 
L 147.900937 223.008 
L 148.1625 223.008 
L 148.685625 223.008 
L 149.20875 223.008 
L 149.731875 223.31 
L 150.255 223.31 
L 150.778125 223.612 
L 151.30125 223.612 
L 152.085938 223.914 
L 152.609062 224.216 
L 153.132188 224.518 
L 153.916875 224.82 
L 154.44 225.122 
L 154.963125 225.122 
L 155.48625 225.424 
L 156.009375 225.424 
L 156.5325 225.726 
L 157.055625 225.726 
L 157.57875 226.028 
L 158.101875 226.028 
L 158.363438 226.33 
L 158.886563 226.632 
L 159.148125 226.934 
L 159.409688 227.236 
L 159.67125 227.236 
L 159.932813 227.538 
L 160.455938 227.84 
L 160.7175 228.142 
L 160.979062 228.444 
L 161.240625 228.746 
L 161.502188 229.048 
L 161.76375 229.35 
L 161.76375 229.652 
L 161.76375 229.652 
L 161.76375 229.652 
L 161.76375 229.652 
L 161.76375 229.652 
L 161.502188 229.652 
L 161.240625 229.652 
L 160.979062 229.652 
" style="fill:none;stroke:#bcbd22;stroke-linecap:square;stroke-width:1.5;"/>
   </g>
   <g id="line2d_25">
    <path clip-path="url(#pef245acb14)" d="M 123.314063 105.228 
L 123.314063 105.228 
L 123.314063 105.228 
L 123.575625 105.228 
L 123.837188 105.832 
L 124.09875 106.134 
L 124.360313 106.436 
L 124.360313 106.738 
L 124.621875 107.04 
L 124.883438 107.342 
L 124.883438 107.644 
L 125.145 107.946 
L 125.406563 108.55 
L 125.406563 108.852 
L 125.668125 109.154 
L 125.668125 109.456 
L 125.929688 109.758 
L 126.19125 110.06 
L 126.452813 110.362 
L 126.714375 110.664 
L 126.975938 110.966 
L 127.2375 111.268 
L 127.760625 111.872 
L 128.022188 112.476 
L 128.545313 113.08 
L 129.068438 113.986 
L 129.33 114.892 
L 129.853125 115.798 
L 130.114688 116.704 
L 130.637812 117.61 
L 130.899375 118.516 
L 131.160937 119.422 
L 131.684063 120.328 
L 131.945625 121.234 
L 132.207188 122.14 
L 132.730313 123.046 
L 132.991875 123.65 
L 133.515 124.556 
L 134.038125 125.16 
L 134.56125 125.462 
L 135.084375 126.066 
L 135.6075 126.368 
L 136.130625 126.67 
L 136.65375 126.972 
L 137.176875 127.274 
L 137.7 127.576 
L 138.223125 127.878 
L 138.74625 127.878 
L 139.530937 128.482 
L 140.054063 128.784 
L 140.577188 128.784 
L 141.100313 129.086 
L 141.623438 129.388 
L 142.146563 129.388 
L 142.669688 129.69 
L 143.454375 129.69 
L 143.9775 129.69 
L 144.762188 129.992 
L 145.546875 129.992 
L 146.07 129.992 
L 146.854688 129.992 
L 147.639375 130.294 
L 148.1625 130.294 
L 148.947188 130.596 
L 149.731875 130.898 
L 150.516563 131.2 
L 151.30125 131.502 
L 152.085938 131.502 
L 153.132188 132.106 
L 153.916875 132.408 
L 154.963125 132.71 
L 156.009375 133.012 
L 157.055625 133.314 
L 158.101875 133.616 
L 159.148125 134.22 
L 160.194375 134.522 
L 161.240625 135.126 
L 162.025313 135.428 
L 162.81 135.73 
L 163.594688 136.334 
L 164.117813 136.636 
L 164.640938 137.24 
L 164.9025 137.542 
L 164.9025 137.844 
L 165.164062 138.448 
L 165.164062 138.75 
L 165.164062 139.052 
L 164.9025 139.656 
L 164.640938 139.958 
L 164.379375 140.26 
L 164.117813 140.562 
L 164.117813 140.864 
L 164.117813 141.166 
L 164.117813 141.468 
L 164.117813 141.77 
L 164.117813 142.374 
L 164.117813 142.978 
L 164.117813 143.884 
L 164.117813 144.79 
L 164.117813 145.394 
" style="fill:none;stroke:#17becf;stroke-linecap:square;stroke-width:1.5;"/>
   </g>
   <g id="line2d_26">
    <path clip-path="url(#pef245acb14)" d="M 228.72375 72.31 
L 228.985313 72.31 
L 229.246875 72.31 
L 229.508438 72.31 
L 229.508438 72.612 
L 229.77 72.612 
L 230.293125 72.612 
L 230.554688 72.612 
L 230.81625 72.612 
L 230.81625 72.612 
L 231.339375 72.612 
L 231.600938 72.612 
L 231.8625 72.612 
L 232.124063 72.612 
L 232.385625 72.612 
L 232.647188 72.612 
L 232.90875 72.612 
L 233.170313 72.612 
L 233.693438 72.612 
L 233.955 72.612 
L 234.216563 72.612 
L 234.216563 72.612 
L 234.478125 72.612 
L 234.739688 72.914 
L 235.00125 72.914 
L 235.00125 72.914 
L 235.262813 72.914 
L 235.262813 72.914 
L 235.262813 73.216 
L 235.524375 73.216 
L 235.524375 73.216 
L 235.785938 73.216 
L 235.785938 73.216 
L 235.785938 73.518 
L 236.0475 73.518 
L 236.309063 73.518 
L 236.309063 73.518 
L 236.570625 73.82 
L 236.570625 73.82 
L 236.570625 74.122 
L 236.832188 74.122 
L 236.832188 74.424 
L 237.09375 74.424 
L 237.09375 74.726 
L 237.355313 75.028 
L 237.355313 75.028 
L 237.355313 75.33 
L 237.616875 75.632 
L 237.616875 75.632 
L 237.878438 75.934 
L 238.14 76.236 
L 238.14 76.538 
L 238.401563 76.538 
L 238.663125 76.84 
L 238.924688 77.142 
L 238.924688 77.444 
L 239.18625 77.746 
L 239.447813 78.048 
L 239.709375 78.35 
L 239.970938 78.652 
L 240.2325 78.954 
L 240.494063 79.558 
L 240.755625 79.86 
L 241.017188 80.162 
L 241.27875 80.766 
L 241.27875 81.068 
L 241.540313 81.672 
L 242.063438 82.276 
L 242.063438 82.578 
L 242.325 83.182 
L 242.586563 83.484 
L 242.848125 83.786 
L 242.848125 84.39 
L 243.109688 84.692 
L 243.109688 84.994 
L 243.37125 85.598 
L 243.632813 85.598 
L 243.632813 85.9 
L 243.894375 86.202 
L 244.155938 86.504 
L 244.679063 86.806 
L 244.940625 87.108 
L 245.46375 87.41 
L 245.986875 87.712 
L 246.248438 88.316 
L 247.033125 88.316 
L 247.55625 88.618 
L 248.079375 88.92 
L 248.6025 89.222 
L 249.125625 89.524 
L 249.64875 89.826 
L 250.171875 90.128 
L 250.695 90.43 
L 251.218125 90.732 
L 251.74125 91.034 
L 252.525938 91.336 
L 253.572188 91.94 
L 254.356875 92.544 
L 255.141563 93.148 
L 255.92625 93.752 
" style="fill:none;stroke:#1f77b4;stroke-linecap:square;stroke-width:1.5;"/>
   </g>
   <g id="line2d_27">
    <path clip-path="url(#pef245acb14)" d="M 97.157813 118.214 
L 97.157813 118.516 
L 97.419375 118.818 
L 97.680937 119.12 
L 97.9425 119.724 
L 98.204063 120.328 
L 98.465625 120.63 
L 98.727188 121.234 
L 98.98875 121.536 
L 98.98875 122.14 
L 99.250313 122.442 
L 99.773438 123.046 
L 99.773438 123.65 
L 100.296563 123.952 
L 100.558125 124.556 
L 100.558125 125.16 
L 100.819688 125.764 
L 101.08125 126.368 
L 101.342813 126.67 
L 101.342813 127.274 
L 101.604375 127.878 
L 101.604375 128.482 
L 101.865938 129.086 
L 102.1275 129.388 
L 102.389063 129.992 
L 102.650625 130.596 
L 102.912188 130.898 
L 103.17375 131.502 
L 103.435313 131.804 
L 103.696875 132.408 
L 103.958438 133.012 
L 104.481562 133.616 
L 104.743125 133.918 
L 105.004688 134.522 
L 105.527813 135.126 
L 105.789375 135.73 
L 106.3125 136.334 
L 106.574062 136.938 
L 106.835625 137.542 
L 107.097188 138.146 
L 107.620313 139.052 
L 107.881875 139.656 
L 108.143438 140.26 
L 108.405 141.166 
L 108.666562 141.77 
L 109.189688 142.374 
L 109.45125 142.978 
L 109.712813 143.582 
L 109.974375 144.186 
L 110.235938 145.092 
L 110.235938 145.696 
L 110.4975 145.998 
L 110.4975 146.602 
L 110.4975 147.206 
L 110.4975 147.508 
L 110.235938 148.112 
L 110.235938 148.414 
L 110.235938 148.716 
L 109.974375 149.018 
L 109.974375 149.622 
L 109.974375 149.924 
L 109.974375 150.226 
L 109.712813 150.528 
L 109.712813 150.83 
L 109.712813 151.434 
L 109.712813 151.736 
L 109.712813 152.038 
L 109.974375 152.642 
L 109.974375 152.944 
L 109.974375 153.246 
L 110.235938 153.85 
L 110.235938 154.152 
L 110.4975 154.756 
L 110.4975 155.36 
L 110.759062 155.662 
L 111.020625 156.266 
L 111.020625 156.87 
L 111.282188 157.776 
L 111.54375 158.38 
L 111.805313 158.984 
L 111.805313 159.588 
L 112.066875 160.192 
L 112.328438 160.494 
L 112.328438 161.098 
L 112.59 161.4 
L 112.59 161.702 
L 112.851562 162.004 
L 112.851562 162.306 
L 113.113125 162.608 
L 113.113125 162.608 
L 113.113125 162.608 
L 113.113125 162.608 
L 113.113125 162.608 
L 113.113125 162.608 
L 113.113125 162.608 
L 113.113125 162.608 
L 113.113125 162.608 
L 113.113125 162.608 
L 113.113125 162.306 
L 112.851562 162.306 
" style="fill:none;stroke:#ff7f0e;stroke-linecap:square;stroke-width:1.5;"/>
   </g>
   <g id="line2d_28">
    <path clip-path="url(#pef245acb14)" d="M 188.704688 218.176 
L 188.704688 217.874 
L 188.96625 217.572 
L 188.96625 217.27 
L 189.489375 217.27 
L 189.750938 216.666 
L 190.0125 216.364 
L 190.535625 216.062 
L 191.05875 215.76 
L 191.581875 215.458 
L 192.366563 215.156 
L 193.15125 214.854 
L 193.935938 214.552 
L 194.720625 214.25 
L 195.505313 214.25 
L 196.551563 213.948 
L 197.597813 213.948 
L 198.3825 213.948 
L 199.690313 213.948 
L 200.736563 213.948 
L 201.782813 214.25 
L 203.090625 214.25 
L 204.136875 214.552 
L 205.183125 214.552 
L 206.490938 214.854 
L 207.537188 215.156 
L 208.845 215.458 
L 209.89125 215.76 
L 211.199063 216.364 
L 212.245313 216.666 
L 213.291563 217.27 
L 214.337813 217.874 
L 215.384063 218.478 
L 216.691875 219.082 
L 217.738125 219.686 
L 218.522813 220.29 
L 219.569063 220.592 
L 220.615313 220.894 
L 221.4 221.196 
L 222.44625 221.498 
L 223.230938 221.8 
L 224.277188 221.8 
L 225.061875 221.8 
L 225.846563 221.498 
L 226.63125 221.498 
L 227.415938 221.196 
L 228.200625 220.894 
L 228.985313 220.592 
L 229.77 220.29 
L 230.554688 219.988 
L 231.600938 219.384 
L 232.385625 219.082 
L 232.90875 218.478 
L 233.955 217.874 
L 234.739688 217.572 
L 235.262813 216.968 
L 236.309063 216.666 
L 237.09375 216.062 
L 237.878438 215.458 
L 238.924688 215.156 
L 239.970938 214.552 
L 241.017188 214.25 
L 242.063438 213.646 
L 243.37125 213.344 
L 244.679063 213.042 
L 245.986875 212.74 
L 247.294688 212.438 
L 248.6025 212.438 
L 249.910313 212.438 
L 251.218125 212.438 
L 252.525938 212.438 
L 253.83375 212.74 
L 255.403125 213.042 
L 256.449375 213.344 
L 257.757187 213.948 
L 259.326563 214.552 
L 260.634375 214.854 
L 261.942188 215.458 
L 262.988438 216.062 
L 264.29625 216.666 
L 265.604063 216.968 
L 266.911875 217.27 
L 267.958125 217.572 
L 269.265938 217.874 
L 270.312188 217.874 
L 271.358438 217.874 
L 272.66625 217.874 
L 273.7125 217.572 
L 274.75875 216.968 
L 275.805 216.062 
L 276.85125 215.458 
L 277.8975 214.854 
L 278.94375 214.25 
L 279.99 213.948 
L 281.297813 213.646 
L 282.605625 213.344 
L 283.913437 213.042 
L 284.959688 213.042 
L 286.005938 213.042 
L 287.31375 213.042 
" style="fill:none;stroke:#2ca02c;stroke-linecap:square;stroke-width:1.5;"/>
   </g>
   <g id="line2d_29">
    <path clip-path="url(#pef245acb14)" d="M 225.585 128.784 
L 225.061875 128.784 
L 224.53875 128.784 
L 224.015625 128.784 
L 223.230938 129.086 
L 222.44625 129.086 
L 221.923125 128.784 
L 221.138438 128.784 
L 220.35375 128.784 
L 219.569063 128.482 
L 218.784375 128.482 
L 217.738125 128.18 
L 216.953438 128.18 
L 215.907188 127.878 
L 215.1225 127.576 
L 214.07625 127.576 
L 213.291563 127.274 
L 212.245313 127.274 
L 211.722188 126.972 
L 210.9375 126.972 
L 210.414375 126.67 
L 209.89125 126.368 
L 209.368125 126.368 
L 209.106563 126.066 
L 208.845 126.066 
L 208.845 125.764 
L 208.583438 125.764 
L 208.321875 125.462 
L 208.321875 125.462 
L 208.060313 125.16 
L 207.79875 125.16 
L 207.275625 125.16 
L 206.7525 125.16 
L 206.229375 124.858 
L 205.70625 124.858 
L 204.921563 124.858 
L 204.136875 124.858 
L 203.352188 125.16 
L 202.5675 125.16 
L 201.782813 125.16 
L 200.998125 125.16 
L 200.475 125.462 
L 199.690313 125.462 
L 199.42875 125.462 
L 199.167188 125.764 
L 198.905625 126.066 
L 198.644063 126.066 
L 198.905625 126.368 
L 198.905625 126.67 
L 199.167188 126.972 
L 199.167188 126.972 
L 199.690313 127.274 
L 199.951875 127.878 
L 200.213438 127.878 
L 200.475 128.18 
L 200.998125 128.482 
L 201.259688 128.784 
L 201.52125 129.086 
L 202.044375 129.086 
L 202.305938 129.388 
L 202.5675 129.69 
L 202.829063 129.992 
L 203.090625 130.294 
L 203.352188 130.596 
L 203.352188 130.898 
L 203.61375 131.2 
L 203.61375 131.804 
L 203.875313 132.106 
L 203.875313 132.71 
L 204.136875 133.314 
L 204.136875 133.918 
L 204.398438 134.824 
L 204.66 135.428 
L 204.921563 136.032 
L 205.183125 136.636 
L 205.444688 137.24 
L 205.70625 137.844 
L 205.967813 138.448 
L 206.490938 138.75 
L 206.7525 139.052 
L 207.275625 139.354 
L 207.79875 139.656 
L 208.060313 139.656 
L 208.583438 139.958 
L 209.106563 139.958 
L 209.629688 140.26 
L 210.152813 139.958 
L 210.675938 139.958 
L 211.199063 140.26 
L 211.722188 140.562 
L 212.245313 140.864 
L 212.768438 140.864 
L 213.291563 140.864 
L 213.814688 140.864 
L 214.337813 140.864 
L 214.599375 141.166 
L 215.1225 141.468 
L 215.645625 141.77 
L 216.16875 142.072 
L 216.691875 142.072 
" style="fill:none;stroke:#d62728;stroke-linecap:square;stroke-width:1.5;"/>
   </g>
   <g id="line2d_30">
    <path clip-path="url(#pef245acb14)" d="M 177.980625 138.75 
L 177.980625 138.75 
L 177.980625 138.75 
L 177.980625 138.75 
L 177.980625 138.75 
L 177.980625 138.75 
L 177.980625 138.75 
L 177.980625 138.448 
L 177.980625 138.448 
L 177.980625 138.448 
L 178.242188 138.146 
L 178.242188 138.146 
L 178.242188 137.844 
L 178.50375 137.542 
L 178.765313 137.542 
L 178.765313 137.24 
L 179.026875 136.938 
L 179.288438 136.938 
L 179.288438 136.636 
L 179.55 136.636 
L 179.55 136.334 
L 179.55 136.334 
L 179.811563 136.334 
L 179.811563 136.032 
L 179.811563 136.032 
L 179.811563 136.032 
L 179.811563 136.032 
L 179.811563 136.032 
L 179.811563 136.032 
L 179.811563 136.032 
L 179.811563 136.032 
L 179.811563 135.73 
L 179.811563 135.73 
L 179.811563 136.032 
L 179.811563 136.032 
L 179.811563 136.032 
L 179.811563 136.032 
L 179.811563 136.032 
L 179.811563 136.032 
L 179.811563 136.032 
L 179.811563 136.032 
L 179.811563 136.334 
L 179.55 136.334 
L 179.55 136.334 
L 179.288438 136.334 
L 179.288438 136.334 
L 179.026875 136.334 
L 179.026875 136.334 
L 179.026875 136.636 
L 178.765313 136.636 
L 178.765313 136.636 
L 178.50375 136.636 
L 178.50375 136.636 
L 178.50375 136.636 
L 178.50375 136.636 
L 178.242188 136.636 
L 178.242188 136.636 
L 177.980625 136.636 
L 177.980625 136.636 
L 177.719063 136.636 
L 177.719063 136.636 
L 177.4575 136.334 
L 177.195938 136.334 
L 177.195938 136.334 
L 176.934375 136.334 
L 176.934375 136.032 
L 176.672813 136.032 
L 176.672813 136.032 
L 176.41125 135.73 
L 176.41125 135.73 
L 176.149688 135.428 
L 176.149688 135.428 
L 175.888125 135.126 
L 175.888125 135.126 
L 175.626563 135.126 
L 175.626563 134.824 
L 175.365 134.824 
L 175.365 134.522 
L 175.103438 134.522 
L 174.841875 134.522 
L 174.841875 134.22 
L 174.580313 134.22 
L 174.580313 134.22 
L 174.31875 134.22 
L 174.31875 133.918 
L 174.057187 133.918 
L 174.31875 133.918 
L 174.057187 133.918 
L 173.795625 133.918 
L 173.534063 133.918 
L 173.534063 133.918 
L 173.2725 133.918 
L 173.2725 133.918 
L 173.010938 133.918 
L 172.749375 133.918 
L 172.749375 133.918 
L 172.749375 133.918 
L 172.749375 133.918 
L 172.749375 133.918 
L 172.749375 133.918 
" style="fill:none;stroke:#9467bd;stroke-linecap:square;stroke-width:1.5;"/>
   </g>
   <g id="line2d_31">
    <path clip-path="url(#pef245acb14)" d="M 127.499063 136.938 
L 127.499063 136.938 
L 127.499063 136.938 
L 127.499063 136.938 
L 126.975938 136.938 
L 126.975938 136.938 
L 126.714375 136.938 
L 126.714375 136.636 
L 126.452813 136.636 
L 126.452813 136.636 
L 126.452813 136.334 
L 126.452813 136.334 
L 126.452813 136.334 
L 126.19125 136.334 
L 126.19125 136.334 
L 126.19125 136.032 
L 126.19125 136.032 
L 126.19125 136.032 
L 126.19125 136.032 
L 126.19125 136.032 
L 126.19125 136.032 
L 125.929688 136.032 
L 125.929688 136.032 
L 125.929688 136.032 
L 125.929688 136.032 
L 125.929688 135.73 
L 125.929688 135.73 
L 125.929688 135.73 
L 125.929688 135.73 
L 125.929688 135.428 
L 125.929688 135.428 
L 125.929688 135.428 
L 125.929688 135.428 
L 125.929688 135.428 
L 125.929688 135.428 
L 125.668125 135.428 
L 125.668125 135.126 
L 125.668125 135.126 
L 125.668125 135.126 
L 125.406563 135.126 
L 125.406563 135.126 
L 125.406563 135.126 
L 125.406563 135.126 
L 125.406563 135.126 
L 125.406563 135.126 
L 125.406563 135.126 
L 125.406563 135.126 
L 125.406563 135.126 
L 125.406563 135.126 
L 125.406563 135.126 
L 125.406563 135.428 
L 125.145 135.428 
L 125.145 135.428 
L 125.145 135.428 
L 125.145 135.428 
L 124.883438 135.73 
L 124.883438 135.73 
L 124.621875 135.73 
L 124.360313 135.73 
L 124.09875 135.73 
L 123.837188 135.73 
L 123.575625 135.73 
L 123.575625 135.73 
L 123.314063 135.73 
L 123.0525 135.73 
L 122.790938 135.73 
L 122.267813 135.73 
L 122.00625 135.73 
L 121.744688 135.73 
L 121.483125 135.73 
L 121.221563 135.73 
L 120.96 135.73 
L 120.698438 135.428 
L 120.175313 135.428 
L 119.91375 135.428 
L 119.652188 135.126 
L 119.129063 135.126 
L 118.8675 135.126 
L 118.344375 134.824 
L 117.82125 134.824 
L 117.298125 134.824 
L 117.036563 134.522 
L 116.513438 134.522 
L 115.990313 134.22 
L 115.72875 134.22 
L 115.205625 134.22 
L 114.944063 133.918 
L 114.6825 133.918 
L 114.420938 133.616 
L 113.897813 133.616 
L 113.374688 133.314 
L 112.851562 133.012 
L 112.328438 132.71 
L 111.54375 132.71 
L 110.759062 132.408 
L 109.974375 132.106 
L 109.45125 131.804 
L 108.928125 131.804 
L 108.405 131.804 
L 107.881875 131.804 
" style="fill:none;stroke:#8c564b;stroke-linecap:square;stroke-width:1.5;"/>
   </g>
   <g id="line2d_32">
    <path clip-path="url(#pef245acb14)" d="M 340.934063 104.02 
L 340.934063 104.02 
L 340.934063 104.02 
L 340.6725 104.02 
L 339.887813 104.02 
L 339.62625 104.02 
L 339.103125 103.718 
L 338.841563 103.718 
L 338.318438 103.718 
L 337.795313 103.416 
L 337.272188 103.416 
L 337.010625 103.416 
L 336.4875 103.416 
L 336.225938 103.416 
L 335.964375 103.416 
L 335.702813 103.114 
L 335.44125 103.114 
L 335.179688 103.114 
L 335.179688 103.114 
L 334.918125 103.114 
L 334.918125 103.114 
L 334.918125 103.114 
L 334.918125 103.114 
L 334.918125 102.812 
L 334.918125 102.812 
L 334.918125 102.812 
L 334.918125 102.812 
L 334.918125 102.812 
L 334.918125 102.812 
L 335.179688 102.812 
L 335.179688 102.812 
L 335.179688 102.812 
L 335.44125 102.812 
L 335.44125 102.812 
L 335.44125 102.812 
L 335.702813 102.812 
L 335.702813 102.812 
L 335.702813 102.51 
L 335.702813 102.51 
L 335.702813 102.812 
L 335.702813 102.812 
L 335.964375 102.812 
L 335.964375 102.812 
L 335.964375 102.812 
L 335.964375 103.114 
L 335.964375 103.114 
L 335.964375 103.114 
L 335.964375 103.114 
L 335.702813 103.416 
L 335.702813 103.416 
L 335.702813 103.416 
L 335.44125 103.416 
L 335.44125 103.416 
L 335.179688 103.416 
L 334.918125 103.114 
L 334.918125 103.114 
L 334.656563 103.114 
L 334.395 103.114 
L 334.133438 102.812 
L 333.610313 102.812 
L 333.610313 102.812 
L 333.34875 102.812 
L 333.087188 102.812 
L 332.825625 102.51 
L 332.825625 102.51 
L 332.564063 102.51 
L 332.3025 102.51 
L 332.3025 102.51 
L 332.040938 102.51 
L 331.779375 102.51 
L 331.779375 102.51 
L 331.517813 102.51 
L 331.517813 102.51 
L 331.25625 102.51 
L 331.25625 102.51 
L 331.25625 102.51 
L 331.25625 102.51 
L 330.994688 102.51 
L 330.994688 102.51 
L 330.994688 102.51 
L 330.994688 102.51 
L 330.994688 102.51 
L 330.733125 102.208 
L 330.733125 102.208 
L 330.471563 102.208 
L 330.21 102.208 
L 330.21 101.906 
L 329.948438 101.906 
L 329.686875 101.906 
L 329.425313 101.906 
L 328.902188 101.906 
L 328.379063 101.906 
L 327.855938 101.604 
L 327.332813 101.604 
L 327.07125 101.604 
L 326.809688 101.604 
L 326.548125 101.604 
L 326.286563 101.604 
L 326.286563 101.604 
L 326.025 101.604 
" style="fill:none;stroke:#e377c2;stroke-linecap:square;stroke-width:1.5;"/>
   </g>
   <g id="line2d_33">
    <path clip-path="url(#pef245acb14)" d="M 173.2725 124.556 
L 173.795625 123.952 
L 174.31875 123.348 
L 174.841875 122.442 
L 175.365 121.838 
L 175.888125 120.932 
L 176.149688 120.026 
L 176.672813 119.422 
L 177.195938 118.516 
L 177.4575 117.912 
L 177.980625 117.006 
L 178.242188 116.704 
L 178.50375 116.1 
L 178.765313 115.798 
L 179.288438 115.496 
L 179.55 115.496 
L 179.811563 115.496 
L 180.073125 115.496 
L 180.334688 115.798 
L 180.857813 116.1 
L 181.380938 116.402 
L 181.6425 116.704 
L 182.165625 117.308 
L 182.68875 117.61 
L 183.211875 118.214 
L 183.473438 118.516 
L 183.996563 118.818 
L 184.258125 119.422 
L 184.519688 119.724 
L 184.519688 120.328 
L 184.78125 120.63 
L 184.78125 120.932 
L 185.042813 120.932 
L 185.042813 121.234 
L 185.042813 121.536 
L 185.304375 121.838 
L 185.565938 121.838 
L 185.8275 122.14 
L 186.350625 122.14 
L 186.612188 122.442 
L 187.135313 122.744 
L 187.658438 123.046 
L 187.92 123.65 
L 188.443125 123.952 
L 188.704688 124.254 
L 188.704688 124.556 
L 188.96625 125.16 
L 188.96625 125.462 
L 188.96625 126.066 
L 188.704688 126.67 
L 188.704688 127.274 
L 188.704688 128.18 
L 188.443125 128.784 
L 188.443125 129.69 
L 188.443125 130.898 
L 188.704688 131.804 
L 188.704688 132.71 
L 188.96625 133.918 
L 189.227813 134.824 
L 189.489375 136.032 
L 189.750938 137.24 
L 190.274063 138.448 
L 190.797188 139.656 
L 191.320313 141.166 
L 191.843438 142.374 
L 192.628125 143.884 
L 193.412813 145.092 
L 194.1975 146.602 
L 195.24375 147.81 
L 196.028438 148.716 
L 197.074688 149.924 
L 197.859375 150.528 
L 198.644063 151.132 
L 199.167188 151.736 
L 199.951875 152.038 
L 200.475 152.34 
L 200.736563 152.34 
L 201.259688 152.34 
L 201.52125 152.34 
L 201.782813 152.038 
L 202.044375 152.038 
L 202.305938 152.038 
L 202.5675 151.736 
L 202.5675 151.736 
L 202.829063 151.434 
L 202.829063 151.132 
L 203.090625 150.83 
L 203.090625 150.528 
L 203.090625 150.226 
L 203.352188 149.622 
L 203.61375 149.018 
L 203.61375 148.414 
L 203.875313 147.81 
L 204.136875 147.206 
L 204.398438 146.602 
L 204.66 145.998 
L 204.921563 145.394 
L 205.183125 144.79 
L 205.444688 144.488 
L 205.967813 144.186 
" style="fill:none;stroke:#7f7f7f;stroke-linecap:square;stroke-width:1.5;"/>
   </g>
   <g id="line2d_34">
    <path clip-path="url(#pef245acb14)" d="M 345.380625 222.404 
L 345.380625 222.404 
L 345.380625 222.404 
L 345.380625 222.404 
L 345.380625 222.404 
L 345.380625 222.404 
L 345.380625 222.102 
L 345.380625 222.102 
L 345.380625 222.102 
L 345.380625 221.8 
L 345.380625 221.8 
L 345.380625 221.8 
L 345.380625 221.8 
L 345.380625 221.498 
L 345.642188 221.498 
L 345.642188 221.498 
L 345.642188 221.498 
L 345.642188 221.196 
L 345.642188 221.196 
L 345.90375 220.894 
L 345.90375 220.894 
L 345.90375 220.592 
L 345.90375 220.592 
L 345.90375 220.29 
L 345.90375 220.29 
L 345.90375 219.988 
L 345.90375 219.988 
L 345.90375 219.686 
L 345.90375 219.686 
L 346.165313 219.384 
L 346.165313 219.384 
L 346.426875 219.082 
L 346.426875 218.78 
L 346.426875 218.78 
L 346.688438 218.478 
L 346.688438 218.176 
L 346.95 218.176 
L 346.95 217.874 
L 347.211563 217.572 
L 347.211563 217.27 
L 347.473125 216.968 
L 347.473125 216.666 
L 347.473125 216.666 
L 347.473125 216.364 
L 347.734688 216.062 
L 347.734688 216.062 
L 347.734688 215.76 
L 347.734688 215.458 
L 347.99625 215.458 
L 347.99625 215.156 
L 347.99625 215.156 
L 347.99625 215.156 
L 347.99625 215.156 
L 348.257813 214.854 
L 348.257813 214.854 
L 348.257813 214.854 
L 348.257813 214.854 
L 348.257813 214.854 
L 348.257813 214.854 
L 348.257813 214.854 
L 347.99625 214.552 
L 347.99625 214.552 
L 347.99625 214.552 
L 347.99625 214.552 
L 347.99625 214.552 
L 347.99625 214.552 
L 347.99625 214.552 
L 347.734688 214.552 
L 347.734688 214.552 
L 347.734688 214.552 
L 347.473125 214.552 
L 347.473125 214.552 
L 347.473125 214.854 
L 347.473125 214.854 
L 347.473125 214.854 
L 347.211563 214.854 
L 347.211563 215.156 
L 347.211563 215.156 
L 347.211563 215.156 
L 347.211563 215.458 
L 347.211563 215.458 
L 347.211563 215.458 
L 347.211563 215.458 
L 347.211563 215.458 
L 347.211563 215.76 
L 347.211563 215.76 
L 347.473125 215.458 
L 347.473125 215.458 
L 347.473125 215.458 
L 347.211563 215.458 
L 347.211563 215.76 
L 346.95 215.76 
L 346.688438 216.062 
L 346.426875 216.062 
L 346.426875 216.062 
L 346.426875 216.364 
L 346.165313 216.666 
L 345.90375 216.968 
L 345.642188 216.968 
L 345.380625 217.27 
" style="fill:none;stroke:#bcbd22;stroke-linecap:square;stroke-width:1.5;"/>
   </g>
   <g id="line2d_35">
    <path clip-path="url(#pef245acb14)" d="M 141.361875 167.742 
L 141.361875 167.742 
L 141.361875 167.742 
L 141.361875 167.742 
L 141.100313 167.742 
L 141.100313 167.742 
L 141.100313 167.742 
L 141.100313 167.742 
L 141.100313 167.742 
L 141.100313 167.742 
L 141.100313 167.742 
L 141.100313 167.742 
L 141.100313 167.742 
L 141.100313 167.742 
L 141.100313 167.742 
L 141.100313 167.742 
L 141.100313 167.742 
L 141.100313 167.742 
L 141.100313 167.742 
L 141.100313 167.742 
L 141.100313 167.742 
L 141.100313 167.742 
L 141.100313 167.742 
L 141.100313 167.742 
L 141.100313 167.742 
L 141.100313 167.742 
L 141.100313 167.742 
L 141.100313 167.742 
L 141.100313 167.742 
L 141.100313 167.742 
L 141.100313 167.742 
L 141.100313 167.742 
L 141.100313 167.742 
L 141.100313 167.742 
L 141.100313 167.742 
L 141.100313 167.742 
L 141.100313 167.742 
L 141.361875 167.742 
L 141.361875 167.742 
L 141.361875 167.742 
L 141.361875 167.742 
L 141.361875 167.742 
L 141.623438 167.742 
L 141.623438 167.742 
L 141.623438 167.742 
L 141.623438 167.742 
L 141.623438 167.742 
L 141.623438 167.742 
L 141.623438 167.742 
L 141.623438 167.742 
L 141.623438 168.044 
L 141.623438 168.044 
L 141.623438 168.044 
L 141.623438 168.044 
L 141.623438 168.044 
L 141.623438 168.346 
L 141.623438 168.346 
L 141.623438 168.346 
L 141.623438 168.346 
L 141.623438 168.346 
L 141.623438 168.346 
L 141.623438 168.346 
L 141.623438 168.346 
L 141.623438 168.346 
L 141.623438 168.648 
L 141.623438 168.648 
L 141.623438 168.648 
L 141.623438 168.648 
L 141.623438 168.648 
L 141.623438 168.648 
L 141.623438 168.648 
L 141.623438 168.648 
L 141.623438 168.95 
L 141.623438 168.95 
L 141.623438 168.95 
L 141.623438 168.648 
L 141.623438 168.648 
L 141.623438 168.648 
L 141.623438 168.346 
L 141.623438 168.346 
L 141.623438 168.044 
L 141.623438 168.044 
L 141.623438 167.742 
L 141.623438 167.44 
L 141.623438 167.44 
L 141.623438 167.138 
L 141.623438 166.836 
L 141.623438 166.836 
L 141.623438 166.836 
L 141.885 166.836 
L 141.885 166.836 
L 141.885 166.836 
L 141.885 166.836 
L 141.885 166.836 
L 141.885 166.836 
L 141.885 166.836 
L 141.885 166.836 
L 141.885 166.836 
L 141.885 166.836 
L 142.146563 166.836 
" style="fill:none;stroke:#17becf;stroke-linecap:square;stroke-width:1.5;"/>
   </g>
   <g id="line2d_36">
    <path clip-path="url(#pef245acb14)" d="M 67.60125 109.154 
L 67.60125 108.852 
L 67.862813 108.55 
L 68.385937 107.946 
L 68.124375 107.644 
L 68.385937 107.342 
L 68.6475 107.04 
L 68.6475 106.738 
L 68.909063 106.436 
L 69.170625 106.134 
L 69.170625 106.134 
L 69.432187 105.832 
L 69.69375 105.832 
L 69.69375 105.832 
L 69.955313 105.53 
L 69.955313 105.53 
L 69.955313 105.53 
L 69.955313 105.53 
L 69.955313 105.53 
L 69.69375 105.53 
L 69.69375 105.53 
L 69.69375 105.832 
L 69.69375 105.832 
L 69.432187 105.832 
L 69.432187 105.832 
L 69.432187 106.134 
L 69.432187 106.134 
L 69.432187 106.436 
L 69.432187 106.436 
L 69.432187 106.738 
L 69.432187 107.04 
L 69.432187 107.04 
L 69.432187 107.342 
L 69.432187 107.342 
L 69.432187 107.644 
L 69.432187 107.946 
L 69.432187 108.248 
L 69.432187 108.248 
L 69.432187 108.55 
L 69.432187 108.852 
L 69.432187 109.456 
L 69.432187 109.758 
L 69.432187 109.758 
L 69.432187 110.06 
L 69.69375 110.362 
L 69.69375 110.664 
L 69.69375 110.664 
L 69.955313 110.966 
L 69.955313 111.268 
L 70.216875 111.268 
L 70.216875 111.57 
L 70.216875 111.872 
L 70.216875 111.872 
L 70.478437 112.174 
L 70.478437 112.174 
L 70.478437 112.476 
L 70.478437 112.476 
L 70.478437 112.778 
L 70.478437 112.778 
L 70.478437 112.778 
L 70.478437 113.08 
L 70.478437 113.08 
L 70.478437 113.382 
L 70.478437 113.382 
L 70.478437 113.684 
L 70.216875 113.986 
L 70.216875 114.288 
L 70.216875 114.288 
L 70.216875 114.892 
L 70.216875 115.194 
L 70.216875 115.496 
L 69.955313 115.798 
L 69.955313 115.798 
L 69.69375 116.1 
L 69.69375 116.402 
L 69.432187 117.006 
L 69.432187 117.006 
L 69.170625 117.61 
L 68.909063 117.912 
L 68.909063 118.214 
L 68.6475 118.516 
L 68.6475 118.516 
L 68.385937 118.818 
L 68.124375 119.12 
L 68.124375 119.724 
L 68.385937 119.724 
L 67.862813 120.026 
L 67.862813 120.328 
L 67.862813 120.63 
L 67.862813 120.932 
L 67.862813 121.234 
L 67.60125 121.536 
L 67.339687 121.838 
L 66.816563 122.14 
L 66.555 122.442 
L 66.293437 122.744 
L 66.031875 123.046 
L 65.770313 123.348 
L 65.50875 123.65 
" style="fill:none;stroke:#1f77b4;stroke-linecap:square;stroke-width:1.5;"/>
   </g>
   <g id="line2d_37">
    <path clip-path="url(#pef245acb14)" d="M 336.749063 169.856 
L 336.4875 169.856 
L 336.4875 169.856 
L 336.4875 169.856 
L 336.4875 169.856 
L 336.4875 169.856 
L 336.4875 169.856 
L 336.4875 169.856 
L 336.225938 169.554 
L 336.225938 169.554 
L 336.225938 169.554 
L 335.964375 169.554 
L 335.702813 169.554 
L 335.44125 169.554 
L 335.179688 169.252 
L 334.656563 169.252 
L 334.133438 169.252 
L 333.610313 169.252 
L 333.087188 169.252 
L 332.3025 169.252 
L 331.779375 169.252 
L 331.25625 169.252 
L 330.733125 169.252 
L 330.471563 169.252 
L 329.948438 169.252 
L 329.686875 169.252 
L 329.425313 169.252 
L 329.16375 169.252 
L 329.16375 169.252 
L 328.902188 169.252 
L 328.902188 169.252 
L 328.640625 169.252 
L 328.640625 169.252 
L 328.379063 169.252 
L 328.379063 169.252 
L 328.1175 169.554 
L 327.594375 169.554 
L 327.332813 169.554 
L 326.809688 169.554 
L 326.025 169.554 
L 325.501875 169.554 
L 324.97875 169.554 
L 324.455625 169.554 
L 323.670938 169.554 
L 323.147813 169.554 
L 322.624688 169.554 
L 322.363125 169.856 
L 321.84 169.856 
L 321.578438 169.856 
L 321.316875 170.158 
L 321.055313 170.158 
L 320.79375 170.46 
L 320.532188 170.762 
L 320.532188 170.762 
L 320.270625 171.064 
L 320.270625 171.064 
L 320.270625 171.366 
L 320.270625 171.366 
L 320.270625 171.668 
L 320.270625 171.668 
L 320.270625 171.97 
L 320.270625 171.97 
L 320.270625 172.272 
L 320.270625 172.574 
L 320.270625 172.574 
L 320.270625 172.876 
L 320.270625 173.178 
L 320.270625 173.48 
L 320.270625 173.782 
L 320.270625 173.782 
L 320.270625 174.084 
L 320.270625 174.386 
L 320.270625 174.386 
L 320.270625 174.688 
L 320.009063 174.688 
L 320.009063 174.99 
L 319.7475 174.99 
L 319.485938 174.99 
L 319.485938 174.99 
L 319.224375 174.99 
L 318.962813 174.99 
L 318.70125 174.99 
L 318.439688 174.99 
L 318.178125 174.99 
L 318.178125 174.99 
L 317.916563 174.99 
L 317.655 174.99 
L 317.393438 174.99 
L 317.393438 174.688 
L 317.393438 174.688 
L 317.131875 174.386 
L 316.870313 174.386 
L 316.870313 174.386 
L 316.870313 174.386 
L 316.870313 174.386 
L 316.870313 174.386 
L 316.870313 174.386 
L 316.60875 174.386 
" style="fill:none;stroke:#ff7f0e;stroke-linecap:square;stroke-width:1.5;"/>
   </g>
   <g id="line2d_38">
    <path clip-path="url(#pef245acb14)" d="M 317.131875 141.77 
L 317.393438 141.468 
L 317.655 141.166 
L 317.655 140.562 
L 317.393438 139.656 
L 317.393438 138.75 
L 317.655 137.844 
L 317.655 136.938 
L 317.655 135.73 
L 317.655 134.824 
L 317.655 133.616 
L 317.916563 132.408 
L 317.916563 131.2 
L 318.178125 130.294 
L 318.178125 129.086 
L 318.439688 128.482 
L 318.70125 127.576 
L 318.70125 126.972 
L 318.962813 126.67 
L 318.962813 126.67 
L 318.962813 126.368 
L 318.962813 126.368 
L 318.962813 126.67 
L 318.962813 126.972 
L 318.962813 127.274 
L 318.962813 127.878 
L 318.962813 128.18 
L 318.962813 128.784 
L 318.962813 129.388 
L 318.962813 129.992 
L 319.224375 130.294 
L 319.224375 130.898 
L 319.485938 131.502 
L 320.009063 132.106 
L 320.270625 132.71 
L 320.79375 133.314 
L 321.316875 133.918 
L 321.84 134.22 
L 322.363125 134.824 
L 323.147813 135.126 
L 323.9325 135.428 
L 324.455625 135.73 
L 325.240313 135.73 
L 325.763438 135.73 
L 326.286563 135.73 
L 326.809688 135.73 
L 327.594375 135.428 
L 328.1175 135.428 
L 328.640625 135.126 
L 329.16375 134.824 
L 329.425313 134.522 
L 329.948438 134.522 
L 330.471563 134.22 
L 330.733125 133.918 
L 331.25625 133.918 
L 331.517813 133.616 
L 331.779375 133.616 
L 332.3025 133.314 
L 332.3025 133.314 
L 332.564063 133.314 
L 332.564063 133.314 
L 332.564063 133.314 
L 332.3025 133.616 
L 332.040938 133.918 
L 331.779375 134.22 
L 331.25625 134.522 
L 330.733125 135.126 
L 330.21 135.73 
L 329.686875 136.334 
L 329.16375 136.938 
L 328.640625 137.542 
L 328.379063 138.146 
L 327.855938 138.75 
L 327.594375 139.354 
L 327.332813 139.958 
L 327.07125 140.562 
L 326.809688 141.468 
L 326.548125 142.072 
L 326.286563 142.676 
L 326.286563 143.28 
L 326.286563 144.186 
L 326.286563 144.79 
L 326.286563 145.394 
L 326.548125 145.998 
L 326.809688 146.602 
L 327.07125 147.206 
L 327.332813 147.81 
L 327.594375 148.112 
L 327.855938 148.414 
L 328.1175 148.716 
L 328.379063 149.018 
L 328.902188 149.32 
L 329.425313 149.622 
L 330.21 149.622 
L 330.994688 149.622 
L 331.779375 149.622 
L 332.3025 149.622 
L 332.825625 149.622 
L 333.34875 149.32 
L 333.871875 149.018 
" style="fill:none;stroke:#2ca02c;stroke-linecap:square;stroke-width:1.5;"/>
   </g>
   <g id="line2d_39">
    <path clip-path="url(#pef245acb14)" d="M 318.70125 155.36 
L 318.70125 155.36 
L 318.962813 155.36 
L 319.224375 155.36 
L 318.962813 155.058 
L 318.962813 154.756 
L 318.962813 154.454 
L 319.224375 154.152 
L 319.224375 153.85 
L 319.224375 153.548 
L 319.485938 153.246 
L 319.485938 152.944 
L 319.485938 152.944 
L 319.485938 152.642 
L 319.485938 152.34 
L 319.7475 152.038 
L 319.7475 151.434 
L 319.485938 151.132 
L 319.485938 150.83 
L 319.485938 150.528 
L 319.224375 149.924 
L 319.224375 149.622 
L 318.962813 149.32 
L 318.70125 148.716 
L 318.439688 148.414 
L 318.439688 147.81 
L 318.178125 147.508 
L 317.916563 147.206 
L 317.655 146.904 
L 317.393438 146.3 
L 317.393438 145.998 
L 317.131875 145.394 
L 317.131875 145.092 
L 317.131875 144.79 
L 317.131875 144.488 
L 317.131875 144.186 
L 317.131875 143.884 
L 317.131875 143.884 
L 317.131875 143.582 
L 317.131875 143.582 
L 317.131875 143.582 
L 317.131875 143.582 
L 317.131875 143.582 
L 317.393438 143.884 
L 317.393438 143.884 
L 317.655 143.884 
L 317.916563 144.186 
L 318.178125 144.186 
L 318.439688 144.186 
L 318.70125 144.488 
L 318.962813 144.488 
L 319.224375 144.79 
L 319.485938 144.79 
L 319.485938 145.092 
L 319.7475 145.394 
L 320.009063 145.696 
L 320.270625 145.998 
L 320.270625 146.3 
L 320.532188 146.904 
L 320.532188 147.508 
L 320.79375 147.81 
L 321.055313 148.414 
L 321.055313 149.018 
L 321.316875 149.924 
L 321.316875 150.528 
L 321.578438 151.132 
L 321.578438 151.736 
L 321.84 152.34 
L 321.84 152.944 
L 321.84 153.548 
L 321.84 154.152 
L 321.84 154.454 
L 321.578438 155.058 
L 321.316875 155.36 
L 321.316875 155.662 
L 320.79375 155.964 
L 320.532188 156.266 
L 320.009063 156.568 
L 319.485938 157.172 
L 318.962813 157.474 
L 318.439688 157.776 
L 317.916563 158.38 
L 317.393438 158.682 
L 316.870313 159.286 
L 316.347188 159.89 
L 315.824063 160.494 
L 315.300938 160.796 
L 315.039375 161.702 
L 314.777813 162.306 
L 314.51625 162.91 
L 314.51625 163.514 
L 314.777813 163.816 
L 314.777813 164.118 
L 314.777813 164.118 
L 314.777813 164.118 
L 314.777813 164.118 
L 315.039375 164.118 
L 315.300938 164.118 
L 315.5625 163.816 
L 315.824063 163.514 
" style="fill:none;stroke:#d62728;stroke-linecap:square;stroke-width:1.5;"/>
   </g>
   <g id="line2d_40">
    <path clip-path="url(#pef245acb14)" d="M 332.3025 144.79 
L 332.3025 144.79 
L 332.3025 144.79 
L 332.3025 144.79 
L 332.3025 144.79 
L 332.3025 144.79 
L 332.3025 144.79 
L 332.564063 144.79 
L 332.564063 144.79 
L 332.564063 144.79 
L 332.564063 144.79 
L 332.564063 144.79 
L 332.825625 144.79 
L 332.825625 144.79 
L 332.825625 144.79 
L 332.825625 144.79 
L 332.825625 144.79 
L 332.825625 144.79 
L 332.825625 144.79 
L 332.825625 144.79 
L 332.825625 144.79 
L 332.825625 144.79 
L 332.825625 144.79 
L 332.825625 144.79 
L 332.825625 144.79 
L 332.825625 144.79 
L 333.087188 144.79 
L 333.087188 144.79 
L 333.087188 144.79 
L 333.087188 144.79 
L 333.087188 144.79 
L 333.087188 144.79 
L 333.087188 144.79 
L 333.087188 144.79 
L 333.087188 144.79 
L 333.34875 144.79 
L 333.34875 144.79 
L 333.610313 144.79 
L 333.871875 144.79 
L 333.871875 144.79 
L 334.133438 144.79 
L 334.395 144.79 
L 334.656563 144.79 
L 334.918125 144.79 
L 335.179688 144.79 
L 335.702813 144.79 
L 335.964375 144.79 
L 336.4875 144.79 
L 336.749063 144.79 
L 337.272188 144.79 
L 337.53375 144.79 
L 338.056875 145.092 
L 338.318438 145.092 
L 338.58 145.394 
L 338.58 145.394 
L 338.841563 145.394 
L 338.841563 145.696 
L 338.841563 145.696 
L 339.103125 145.998 
L 339.103125 145.998 
L 339.103125 145.998 
L 339.103125 145.998 
L 339.103125 145.998 
L 339.103125 145.998 
L 339.103125 145.998 
L 339.103125 145.696 
L 339.103125 145.696 
L 339.103125 145.394 
L 339.103125 145.394 
L 339.103125 145.092 
L 339.103125 145.092 
L 339.103125 145.092 
L 339.103125 144.79 
L 339.364688 144.79 
L 339.364688 144.79 
L 339.62625 144.79 
L 339.62625 144.79 
L 339.887813 144.79 
L 339.887813 144.79 
L 339.887813 144.79 
L 340.149375 144.79 
L 340.149375 144.79 
L 340.149375 144.79 
L 340.149375 144.79 
L 340.149375 144.79 
L 340.149375 144.79 
L 340.149375 144.488 
L 340.149375 144.488 
L 340.149375 144.488 
L 340.149375 144.488 
L 340.149375 144.488 
L 340.149375 144.488 
L 340.149375 144.488 
L 340.149375 144.488 
L 340.149375 144.488 
L 340.149375 144.488 
L 340.149375 144.488 
L 340.149375 144.488 
L 340.149375 144.488 
L 340.149375 144.488 
" style="fill:none;stroke:#9467bd;stroke-linecap:square;stroke-width:1.5;"/>
   </g>
   <g id="line2d_41">
    <path clip-path="url(#pef245acb14)" d="M 127.2375 67.78 
L 127.2375 67.78 
L 127.2375 67.78 
L 126.975938 67.78 
L 126.975938 67.78 
L 126.714375 67.78 
L 126.714375 67.78 
L 126.714375 67.78 
L 126.452813 67.78 
L 126.452813 67.78 
L 126.452813 67.78 
L 126.452813 67.78 
L 126.452813 67.78 
L 126.452813 67.78 
L 126.452813 67.78 
L 126.452813 67.78 
L 126.452813 67.78 
L 126.452813 67.78 
L 126.452813 67.78 
L 126.452813 67.78 
L 126.452813 67.78 
L 126.452813 67.78 
L 126.452813 67.78 
L 126.452813 67.78 
L 126.452813 67.78 
L 126.452813 67.78 
L 126.452813 67.78 
L 126.452813 67.78 
L 126.452813 67.78 
L 126.452813 67.78 
L 126.452813 67.78 
L 126.452813 67.78 
L 126.452813 67.78 
L 126.452813 67.78 
L 126.452813 67.78 
L 126.452813 67.78 
L 126.452813 67.78 
L 126.452813 67.78 
L 126.452813 67.78 
L 126.452813 67.78 
L 126.452813 67.78 
L 126.452813 67.78 
L 126.452813 67.78 
L 126.452813 67.78 
L 126.452813 67.78 
L 126.452813 67.78 
L 126.452813 67.78 
L 126.452813 67.78 
L 126.452813 67.78 
L 126.452813 67.78 
L 126.452813 67.78 
L 126.452813 67.78 
L 126.452813 67.78 
L 126.452813 67.78 
L 126.452813 67.78 
L 126.452813 67.78 
L 126.452813 67.78 
L 126.452813 67.78 
L 126.452813 67.78 
L 126.452813 67.78 
L 126.452813 67.78 
L 126.452813 67.78 
L 126.452813 67.78 
L 126.452813 67.78 
L 126.452813 67.78 
L 126.452813 67.78 
L 126.452813 67.78 
L 126.452813 67.78 
L 126.452813 67.78 
L 126.452813 67.78 
L 126.452813 67.78 
L 126.452813 67.78 
L 126.452813 67.78 
L 126.452813 67.78 
L 126.452813 67.78 
L 126.452813 67.78 
L 126.452813 67.78 
L 126.452813 67.78 
L 126.452813 67.78 
L 126.452813 67.78 
L 126.452813 67.78 
L 126.19125 67.78 
L 126.19125 67.78 
L 126.19125 67.78 
L 126.19125 67.78 
L 126.19125 67.78 
L 126.19125 67.78 
L 126.19125 67.78 
L 126.19125 67.78 
L 126.19125 67.78 
L 126.19125 67.78 
L 126.19125 67.78 
L 126.19125 67.78 
L 126.19125 67.78 
L 126.19125 67.78 
L 126.19125 67.78 
L 125.929688 67.78 
L 125.929688 67.78 
L 125.929688 67.78 
L 125.929688 67.78 
" style="fill:none;stroke:#8c564b;stroke-linecap:square;stroke-width:1.5;"/>
   </g>
   <g id="line2d_42">
    <path clip-path="url(#pef245acb14)" d="M 137.176875 200.962 
L 137.176875 200.962 
L 137.176875 200.962 
L 137.176875 200.962 
L 136.915313 201.264 
L 136.915313 201.264 
L 136.915313 201.264 
L 136.915313 201.264 
L 136.915313 201.264 
L 136.915313 201.264 
L 136.915313 201.264 
L 136.915313 201.264 
L 136.915313 201.264 
L 136.915313 201.264 
L 136.915313 201.264 
L 136.915313 201.264 
L 136.915313 201.264 
L 136.915313 201.264 
L 136.915313 201.264 
L 136.915313 201.264 
L 136.915313 201.264 
L 136.915313 201.264 
L 136.915313 201.264 
L 136.915313 201.264 
L 136.915313 201.264 
L 136.915313 201.264 
L 136.915313 201.264 
L 136.915313 201.264 
L 136.915313 201.264 
L 136.915313 201.264 
L 136.915313 201.264 
L 136.915313 201.264 
L 136.915313 201.264 
L 136.915313 201.264 
L 136.915313 201.264 
L 136.915313 201.264 
L 136.915313 201.264 
L 136.915313 201.264 
L 136.915313 201.264 
L 136.915313 201.264 
L 136.915313 201.264 
L 136.915313 201.264 
L 136.915313 201.264 
L 136.915313 201.264 
L 136.915313 201.264 
L 136.915313 201.264 
L 136.915313 201.264 
L 136.915313 201.264 
L 136.915313 201.264 
L 136.915313 201.264 
L 136.915313 201.264 
L 136.915313 201.264 
L 136.915313 201.264 
L 136.915313 201.264 
L 136.915313 201.264 
L 136.915313 201.264 
L 136.915313 201.264 
L 136.915313 201.264 
L 136.915313 201.264 
L 136.915313 201.264 
L 136.915313 201.264 
L 136.915313 201.264 
L 136.915313 201.264 
L 136.915313 201.264 
L 136.915313 201.264 
L 136.915313 201.264 
L 136.915313 201.264 
L 136.915313 201.264 
L 136.915313 201.264 
L 136.915313 201.264 
L 136.915313 201.264 
L 136.915313 201.264 
L 136.915313 201.264 
L 136.915313 201.264 
L 136.915313 201.264 
L 136.915313 201.264 
L 136.915313 201.264 
L 136.915313 201.264 
L 136.915313 201.264 
L 136.915313 201.264 
L 136.915313 201.264 
L 136.915313 201.264 
L 136.915313 201.264 
L 136.915313 201.264 
L 136.915313 201.264 
L 136.915313 201.264 
L 137.176875 200.962 
L 137.176875 200.962 
L 137.176875 200.962 
L 137.176875 200.962 
L 137.176875 200.962 
L 137.176875 200.962 
L 137.176875 200.962 
L 137.176875 200.962 
L 137.176875 200.962 
L 137.176875 200.962 
L 137.176875 200.962 
L 137.176875 200.962 
L 137.176875 200.962 
L 137.176875 200.962 
" style="fill:none;stroke:#e377c2;stroke-linecap:square;stroke-width:1.5;"/>
   </g>
   <g id="line2d_43">
    <path clip-path="url(#pef245acb14)" d="M 274.497187 148.112 
L 275.020313 148.414 
L 275.543438 148.414 
L 276.066563 148.716 
L 276.328125 149.018 
L 276.85125 149.32 
L 277.374375 149.622 
L 277.8975 149.924 
L 278.420625 150.226 
L 278.94375 150.528 
L 279.466875 150.528 
L 279.99 150.83 
L 280.513125 151.132 
L 281.297813 151.434 
L 281.820938 151.736 
L 282.605625 152.038 
L 283.390313 152.642 
L 283.913437 152.944 
L 284.698125 153.246 
L 285.482813 153.246 
L 286.2675 153.548 
L 287.052188 153.85 
L 287.836875 154.152 
L 288.621563 154.454 
L 289.40625 154.756 
L 290.190938 155.058 
L 290.714063 155.058 
L 291.49875 155.36 
L 292.283437 155.36 
L 292.806563 155.36 
L 293.329688 155.36 
L 293.852813 155.36 
L 294.114375 155.058 
L 294.6375 155.058 
L 294.899063 154.756 
L 294.899063 154.454 
L 295.160625 154.152 
L 295.160625 153.85 
L 295.160625 153.85 
L 295.422188 153.548 
L 295.422188 153.246 
L 295.422188 153.246 
L 295.422188 152.944 
L 295.68375 152.944 
L 295.945312 152.944 
L 295.945312 152.944 
L 296.206875 152.944 
L 296.468438 152.944 
L 296.73 152.944 
L 296.73 152.944 
L 297.253125 152.944 
L 297.514688 153.246 
L 297.77625 153.246 
L 298.037813 153.548 
L 298.560938 153.548 
L 298.8225 153.85 
L 299.084063 153.85 
L 299.607188 154.152 
L 299.86875 154.152 
L 300.130313 154.454 
L 300.391875 154.454 
L 300.653437 154.454 
L 300.915 154.454 
L 301.176563 154.454 
L 301.438125 154.454 
L 301.438125 154.454 
L 301.699688 154.454 
L 301.96125 154.152 
L 302.222813 154.152 
L 302.484375 154.152 
L 302.484375 153.85 
L 302.745938 153.85 
L 303.0075 153.548 
L 303.269063 153.548 
L 303.530625 153.246 
L 303.792188 153.246 
L 303.792188 153.246 
L 304.315313 153.246 
L 304.576875 152.944 
L 304.576875 152.944 
L 304.838438 152.944 
L 305.1 152.944 
L 305.1 152.944 
L 305.361562 152.944 
L 305.361562 152.944 
L 305.1 152.642 
L 305.361562 152.642 
L 305.1 152.34 
L 304.838438 152.038 
L 304.576875 151.736 
L 304.315313 151.434 
L 304.05375 151.434 
L 303.792188 151.434 
L 303.792188 151.434 
L 303.792188 151.434 
L 303.792188 151.434 
L 303.792188 151.434 
L 303.792188 151.434 
L 303.792188 151.434 
L 303.792188 151.434 
" style="fill:none;stroke:#7f7f7f;stroke-linecap:square;stroke-width:1.5;"/>
   </g>
   <g id="line2d_44">
    <path clip-path="url(#pef245acb14)" d="M 105.527813 140.26 
L 106.3125 140.562 
L 107.35875 140.562 
L 108.405 140.562 
L 109.189688 141.166 
L 110.235938 141.468 
L 111.020625 142.072 
L 112.066875 142.676 
L 112.851562 143.28 
L 113.897813 144.186 
L 114.6825 145.092 
L 115.72875 145.998 
L 116.513438 147.206 
L 117.559688 148.414 
L 118.605938 149.622 
L 119.652188 150.83 
L 120.698438 152.038 
L 121.744688 153.246 
L 122.790938 154.152 
L 123.837188 155.36 
L 124.883438 156.568 
L 125.929688 157.474 
L 126.975938 158.38 
L 127.760625 159.286 
L 128.806875 160.192 
L 129.591563 161.098 
L 130.37625 161.702 
L 131.160937 162.608 
L 131.945625 163.212 
L 132.46875 163.816 
L 132.991875 164.42 
L 133.515 165.024 
L 134.038125 165.628 
L 134.299688 165.93 
L 134.299688 166.534 
L 134.299688 166.836 
L 134.299688 167.138 
L 134.299688 167.44 
L 134.299688 167.44 
L 134.038125 167.742 
L 134.038125 168.044 
L 133.776563 168.346 
L 133.776563 168.648 
L 133.515 168.95 
L 133.515 169.252 
L 133.515 169.856 
L 133.515 170.158 
L 133.515 170.762 
L 133.253438 171.366 
L 133.253438 171.668 
L 133.253438 172.272 
L 133.253438 172.876 
L 133.253438 173.48 
L 133.253438 174.084 
L 133.253438 174.688 
L 133.253438 175.594 
L 133.253438 175.896 
L 133.253438 176.5 
L 133.515 177.406 
L 133.515 177.708 
L 133.776563 178.312 
L 134.038125 178.916 
L 134.299688 179.218 
L 134.56125 179.822 
L 135.084375 180.124 
L 135.345937 180.426 
L 135.869063 180.426 
L 136.392188 180.728 
L 136.915313 180.728 
L 137.438438 181.03 
L 138.223125 181.03 
L 139.007812 181.03 
L 139.7925 181.332 
L 140.577188 181.332 
L 141.361875 181.634 
L 142.408125 181.936 
L 143.454375 182.238 
L 144.500625 182.54 
L 145.546875 182.54 
L 146.854688 182.842 
L 148.1625 183.144 
L 149.20875 183.446 
L 150.778125 183.748 
L 152.085938 184.05 
L 153.39375 184.05 
L 154.963125 184.352 
L 156.5325 184.352 
L 158.101875 184.352 
L 159.67125 184.352 
L 161.502188 184.05 
L 163.071563 183.748 
L 164.640938 183.446 
L 166.210313 183.144 
L 167.779688 182.842 
L 169.349063 182.54 
L 171.18 181.936 
L 172.749375 181.634 
L 174.31875 181.332 
L 175.888125 181.03 
L 177.195938 180.728 
" style="fill:none;stroke:#bcbd22;stroke-linecap:square;stroke-width:1.5;"/>
   </g>
   <g id="patch_3">
    <path d="M 54 252 
L 54 34.56 
" style="fill:none;stroke:#000000;stroke-linecap:square;stroke-linejoin:miter;stroke-width:0.8;"/>
   </g>
   <g id="patch_4">
    <path d="M 388.8 252 
L 388.8 34.56 
" style="fill:none;stroke:#000000;stroke-linecap:square;stroke-linejoin:miter;stroke-width:0.8;"/>
   </g>
   <g id="patch_5">
    <path d="M 54 252 
L 388.8 252 
" style="fill:none;stroke:#000000;stroke-linecap:square;stroke-linejoin:miter;stroke-width:0.8;"/>
   </g>
   <g id="patch_6">
    <path d="M 54 34.56 
L 388.8 34.56 
" style="fill:none;stroke:#000000;stroke-linecap:square;stroke-linejoin:miter;stroke-width:0.8;"/>
   </g>
   <g id="text_18">
    <!-- smoothed ground truth tracks -->
    <defs>
     <path d="M 52 44.1875 
Q 55.375 50.25 60.0625 53.125 
Q 64.75 56 71.09375 56 
Q 79.640625 56 84.28125 50.015625 
Q 88.921875 44.046875 88.921875 33.015625 
L 88.921875 0 
L 79.890625 0 
L 79.890625 32.71875 
Q 79.890625 40.578125 77.09375 44.375 
Q 74.3125 48.1875 68.609375 48.1875 
Q 61.625 48.1875 57.5625 43.546875 
Q 53.515625 38.921875 53.515625 30.90625 
L 53.515625 0 
L 44.484375 0 
L 44.484375 32.71875 
Q 44.484375 40.625 41.703125 44.40625 
Q 38.921875 48.1875 33.109375 48.1875 
Q 26.21875 48.1875 22.15625 43.53125 
Q 18.109375 38.875 18.109375 30.90625 
L 18.109375 0 
L 9.078125 0 
L 9.078125 54.6875 
L 18.109375 54.6875 
L 18.109375 46.1875 
Q 21.1875 51.21875 25.484375 53.609375 
Q 29.78125 56 35.6875 56 
Q 41.65625 56 45.828125 52.96875 
Q 50 49.953125 52 44.1875 
z
" id="DejaVuSans-109"/>
     <path d="M 30.609375 48.390625 
Q 23.390625 48.390625 19.1875 42.75 
Q 14.984375 37.109375 14.984375 27.296875 
Q 14.984375 17.484375 19.15625 11.84375 
Q 23.34375 6.203125 30.609375 6.203125 
Q 37.796875 6.203125 41.984375 11.859375 
Q 46.1875 17.53125 46.1875 27.296875 
Q 46.1875 37.015625 41.984375 42.703125 
Q 37.796875 48.390625 30.609375 48.390625 
z
M 30.609375 56 
Q 42.328125 56 49.015625 48.375 
Q 55.71875 40.765625 55.71875 27.296875 
Q 55.71875 13.875 49.015625 6.21875 
Q 42.328125 -1.421875 30.609375 -1.421875 
Q 18.84375 -1.421875 12.171875 6.21875 
Q 5.515625 13.875 5.515625 27.296875 
Q 5.515625 40.765625 12.171875 48.375 
Q 18.84375 56 30.609375 56 
z
" id="DejaVuSans-111"/>
     <path d="M 18.3125 70.21875 
L 18.3125 54.6875 
L 36.8125 54.6875 
L 36.8125 47.703125 
L 18.3125 47.703125 
L 18.3125 18.015625 
Q 18.3125 11.328125 20.140625 9.421875 
Q 21.96875 7.515625 27.59375 7.515625 
L 36.8125 7.515625 
L 36.8125 0 
L 27.59375 0 
Q 17.1875 0 13.234375 3.875 
Q 9.28125 7.765625 9.28125 18.015625 
L 9.28125 47.703125 
L 2.6875 47.703125 
L 2.6875 54.6875 
L 9.28125 54.6875 
L 9.28125 70.21875 
z
" id="DejaVuSans-116"/>
     <path d="M 54.890625 33.015625 
L 54.890625 0 
L 45.90625 0 
L 45.90625 32.71875 
Q 45.90625 40.484375 42.875 44.328125 
Q 39.84375 48.1875 33.796875 48.1875 
Q 26.515625 48.1875 22.3125 43.546875 
Q 18.109375 38.921875 18.109375 30.90625 
L 18.109375 0 
L 9.078125 0 
L 9.078125 75.984375 
L 18.109375 75.984375 
L 18.109375 46.1875 
Q 21.34375 51.125 25.703125 53.5625 
Q 30.078125 56 35.796875 56 
Q 45.21875 56 50.046875 50.171875 
Q 54.890625 44.34375 54.890625 33.015625 
z
" id="DejaVuSans-104"/>
     <path d="M 56.203125 29.59375 
L 56.203125 25.203125 
L 14.890625 25.203125 
Q 15.484375 15.921875 20.484375 11.0625 
Q 25.484375 6.203125 34.421875 6.203125 
Q 39.59375 6.203125 44.453125 7.46875 
Q 49.3125 8.734375 54.109375 11.28125 
L 54.109375 2.78125 
Q 49.265625 0.734375 44.1875 -0.34375 
Q 39.109375 -1.421875 33.890625 -1.421875 
Q 20.796875 -1.421875 13.15625 6.1875 
Q 5.515625 13.8125 5.515625 26.8125 
Q 5.515625 40.234375 12.765625 48.109375 
Q 20.015625 56 32.328125 56 
Q 43.359375 56 49.78125 48.890625 
Q 56.203125 41.796875 56.203125 29.59375 
z
M 47.21875 32.234375 
Q 47.125 39.59375 43.09375 43.984375 
Q 39.0625 48.390625 32.421875 48.390625 
Q 24.90625 48.390625 20.390625 44.140625 
Q 15.875 39.890625 15.1875 32.171875 
z
" id="DejaVuSans-101"/>
     <path d="M 45.40625 46.390625 
L 45.40625 75.984375 
L 54.390625 75.984375 
L 54.390625 0 
L 45.40625 0 
L 45.40625 8.203125 
Q 42.578125 3.328125 38.25 0.953125 
Q 33.9375 -1.421875 27.875 -1.421875 
Q 17.96875 -1.421875 11.734375 6.484375 
Q 5.515625 14.40625 5.515625 27.296875 
Q 5.515625 40.1875 11.734375 48.09375 
Q 17.96875 56 27.875 56 
Q 33.9375 56 38.25 53.625 
Q 42.578125 51.265625 45.40625 46.390625 
z
M 14.796875 27.296875 
Q 14.796875 17.390625 18.875 11.75 
Q 22.953125 6.109375 30.078125 6.109375 
Q 37.203125 6.109375 41.296875 11.75 
Q 45.40625 17.390625 45.40625 27.296875 
Q 45.40625 37.203125 41.296875 42.84375 
Q 37.203125 48.484375 30.078125 48.484375 
Q 22.953125 48.484375 18.875 42.84375 
Q 14.796875 37.203125 14.796875 27.296875 
z
" id="DejaVuSans-100"/>
     <path d="M 45.40625 27.984375 
Q 45.40625 37.75 41.375 43.109375 
Q 37.359375 48.484375 30.078125 48.484375 
Q 22.859375 48.484375 18.828125 43.109375 
Q 14.796875 37.75 14.796875 27.984375 
Q 14.796875 18.265625 18.828125 12.890625 
Q 22.859375 7.515625 30.078125 7.515625 
Q 37.359375 7.515625 41.375 12.890625 
Q 45.40625 18.265625 45.40625 27.984375 
z
M 54.390625 6.78125 
Q 54.390625 -7.171875 48.1875 -13.984375 
Q 42 -20.796875 29.203125 -20.796875 
Q 24.46875 -20.796875 20.265625 -20.09375 
Q 16.0625 -19.390625 12.109375 -17.921875 
L 12.109375 -9.1875 
Q 16.0625 -11.328125 19.921875 -12.34375 
Q 23.78125 -13.375 27.78125 -13.375 
Q 36.625 -13.375 41.015625 -8.765625 
Q 45.40625 -4.15625 45.40625 5.171875 
L 45.40625 9.625 
Q 42.625 4.78125 38.28125 2.390625 
Q 33.9375 0 27.875 0 
Q 17.828125 0 11.671875 7.65625 
Q 5.515625 15.328125 5.515625 27.984375 
Q 5.515625 40.671875 11.671875 48.328125 
Q 17.828125 56 27.875 56 
Q 33.9375 56 38.28125 53.609375 
Q 42.625 51.21875 45.40625 46.390625 
L 45.40625 54.6875 
L 54.390625 54.6875 
z
" id="DejaVuSans-103"/>
     <path d="M 41.109375 46.296875 
Q 39.59375 47.171875 37.8125 47.578125 
Q 36.03125 48 33.890625 48 
Q 26.265625 48 22.1875 43.046875 
Q 18.109375 38.09375 18.109375 28.8125 
L 18.109375 0 
L 9.078125 0 
L 9.078125 54.6875 
L 18.109375 54.6875 
L 18.109375 46.1875 
Q 20.953125 51.171875 25.484375 53.578125 
Q 30.03125 56 36.53125 56 
Q 37.453125 56 38.578125 55.875 
Q 39.703125 55.765625 41.0625 55.515625 
z
" id="DejaVuSans-114"/>
     <path d="M 8.5 21.578125 
L 8.5 54.6875 
L 17.484375 54.6875 
L 17.484375 21.921875 
Q 17.484375 14.15625 20.5 10.265625 
Q 23.53125 6.390625 29.59375 6.390625 
Q 36.859375 6.390625 41.078125 11.03125 
Q 45.3125 15.671875 45.3125 23.6875 
L 45.3125 54.6875 
L 54.296875 54.6875 
L 54.296875 0 
L 45.3125 0 
L 45.3125 8.40625 
Q 42.046875 3.421875 37.71875 1 
Q 33.40625 -1.421875 27.6875 -1.421875 
Q 18.265625 -1.421875 13.375 4.4375 
Q 8.5 10.296875 8.5 21.578125 
z
M 31.109375 56 
z
" id="DejaVuSans-117"/>
     <path d="M 54.890625 33.015625 
L 54.890625 0 
L 45.90625 0 
L 45.90625 32.71875 
Q 45.90625 40.484375 42.875 44.328125 
Q 39.84375 48.1875 33.796875 48.1875 
Q 26.515625 48.1875 22.3125 43.546875 
Q 18.109375 38.921875 18.109375 30.90625 
L 18.109375 0 
L 9.078125 0 
L 9.078125 54.6875 
L 18.109375 54.6875 
L 18.109375 46.1875 
Q 21.34375 51.125 25.703125 53.5625 
Q 30.078125 56 35.796875 56 
Q 45.21875 56 50.046875 50.171875 
Q 54.890625 44.34375 54.890625 33.015625 
z
" id="DejaVuSans-110"/>
     <path d="M 48.78125 52.59375 
L 48.78125 44.1875 
Q 44.96875 46.296875 41.140625 47.34375 
Q 37.3125 48.390625 33.40625 48.390625 
Q 24.65625 48.390625 19.8125 42.84375 
Q 14.984375 37.3125 14.984375 27.296875 
Q 14.984375 17.28125 19.8125 11.734375 
Q 24.65625 6.203125 33.40625 6.203125 
Q 37.3125 6.203125 41.140625 7.25 
Q 44.96875 8.296875 48.78125 10.40625 
L 48.78125 2.09375 
Q 45.015625 0.34375 40.984375 -0.53125 
Q 36.96875 -1.421875 32.421875 -1.421875 
Q 20.0625 -1.421875 12.78125 6.34375 
Q 5.515625 14.109375 5.515625 27.296875 
Q 5.515625 40.671875 12.859375 48.328125 
Q 20.21875 56 33.015625 56 
Q 37.15625 56 41.109375 55.140625 
Q 45.0625 54.296875 48.78125 52.59375 
z
" id="DejaVuSans-99"/>
     <path d="M 9.078125 75.984375 
L 18.109375 75.984375 
L 18.109375 31.109375 
L 44.921875 54.6875 
L 56.390625 54.6875 
L 27.390625 29.109375 
L 57.625 0 
L 45.90625 0 
L 18.109375 26.703125 
L 18.109375 0 
L 9.078125 0 
z
" id="DejaVuSans-107"/>
    </defs>
    <g transform="translate(131.181563 28.56)scale(0.12 -0.12)">
     <use xlink:href="#DejaVuSans-115"/>
     <use x="52.099609" xlink:href="#DejaVuSans-109"/>
     <use x="149.511719" xlink:href="#DejaVuSans-111"/>
     <use x="210.693359" xlink:href="#DejaVuSans-111"/>
     <use x="271.875" xlink:href="#DejaVuSans-116"/>
     <use x="311.083984" xlink:href="#DejaVuSans-104"/>
     <use x="374.462891" xlink:href="#DejaVuSans-101"/>
     <use x="435.986328" xlink:href="#DejaVuSans-100"/>
     <use x="499.462891" xlink:href="#DejaVuSans-32"/>
     <use x="531.25" xlink:href="#DejaVuSans-103"/>
     <use x="594.726562" xlink:href="#DejaVuSans-114"/>
     <use x="635.808594" xlink:href="#DejaVuSans-111"/>
     <use x="696.990234" xlink:href="#DejaVuSans-117"/>
     <use x="760.369141" xlink:href="#DejaVuSans-110"/>
     <use x="823.748047" xlink:href="#DejaVuSans-100"/>
     <use x="887.224609" xlink:href="#DejaVuSans-32"/>
     <use x="919.011719" xlink:href="#DejaVuSans-116"/>
     <use x="958.220703" xlink:href="#DejaVuSans-114"/>
     <use x="999.333984" xlink:href="#DejaVuSans-117"/>
     <use x="1062.712891" xlink:href="#DejaVuSans-116"/>
     <use x="1101.921875" xlink:href="#DejaVuSans-104"/>
     <use x="1165.300781" xlink:href="#DejaVuSans-32"/>
     <use x="1197.087891" xlink:href="#DejaVuSans-116"/>
     <use x="1236.296875" xlink:href="#DejaVuSans-114"/>
     <use x="1277.410156" xlink:href="#DejaVuSans-97"/>
     <use x="1338.689453" xlink:href="#DejaVuSans-99"/>
     <use x="1393.669922" xlink:href="#DejaVuSans-107"/>
     <use x="1451.580078" xlink:href="#DejaVuSans-115"/>
    </g>
   </g>
  </g>
 </g>
 <defs>
  <clipPath id="pef245acb14">
   <rect height="217.44" width="334.8" x="54" y="34.56"/>
  </clipPath>
 </defs>
</svg>
